<svg xmlns="http://www.w3.org/2000/svg" width="152" height="40" viewBox="0 0 152 40"><g transform="translate(13877 18109)"><path d="M7,0H145a7,7,0,0,1,7,7V33a7,7,0,0,1-7,7H7a7,7,0,0,1-7-7V7A7,7,0,0,1,7,0Z" transform="translate(-13877 -18109)" fill="#c3161c"/><g transform="translate(-13865.51 -18097.039)"><g transform="translate(0 0)"><path d="M213.5,240.626h3.191l-.776-15.886H211.6l-1.53,6.185c-.5,1.637-.993,3.536-1.382,5.216H208.6c-.322-1.7-.753-3.513-1.23-5.174l-1.413-6.256h-4.376l-.939,15.915h3.04l.28-5.518c.088-1.812.173-4.058.238-6.017h.043c.366,1.916.841,3.967,1.316,5.692l1.552,5.606h2.568l1.768-5.669c.561-1.705,1.165-3.777,1.637-5.629h.043c0,2.133.065,4.225.13,5.971Z" transform="translate(-200.646 -224.711)" fill="#fff" fill-rule="evenodd"/><path d="M335.131,244.418a7.45,7.45,0,0,0,3.406.76c3.02,0,4.552-1.451,4.552-3.435-.023-1.531-.843-2.565-2.847-3.233-1.294-.452-1.7-.713-1.7-1.23s.453-.842,1.252-.842a5.593,5.593,0,0,1,2.283.582l.563-2.242a6.944,6.944,0,0,0-2.955-.627c-2.608,0-4.291,1.487-4.291,3.472-.021,1.231.819,2.438,3.019,3.151,1.207.408,1.53.668,1.53,1.229,0,.539-.408.859-1.4.859a6.388,6.388,0,0,1-2.825-.774Z" transform="translate(-262.022 -229.02)" fill="#fff" fill-rule="evenodd"/><path d="M323.02,234.588h-3.279v6.277a1.816,1.816,0,0,1-1.769,1.854c-1.165,0-1.659-.928-1.659-2.458v-5.673h-3.279v6.19c0,3.258,1.552,4.6,3.709,4.6a3.765,3.765,0,0,0,3.3-1.731h.066l.151,1.487h2.846c-.045-.883-.086-2-.086-3.385Z" transform="translate(-251.938 -229.219)" fill="#fff" fill-rule="evenodd"/><rect width="3.275" height="15.307" transform="translate(55.233 0.607)" fill="#fff"/><path d="M279.476,225.21a27.154,27.154,0,0,1,4.441-.3,6.9,6.9,0,0,1,4.465,1.185,4.157,4.157,0,0,1,1.529,3.342,4.558,4.558,0,0,1-1.314,3.45,6.89,6.89,0,0,1-4.744,1.53,5.487,5.487,0,0,1-1.122-.086v6.294h-3.255Zm3.255,7.015a5.091,5.091,0,0,0,1.1.088c1.745,0,2.823-.886,2.823-2.353,0-1.336-.9-2.137-2.565-2.137a5.858,5.858,0,0,0-1.359.11Z" transform="translate(-236.622 -224.802)" fill="#fff" fill-rule="evenodd"/><path d="M252.544,236.456h0a3.809,3.809,0,0,1-.066.734,1.939,1.939,0,0,1-1.918,1.573c-1.359,0-2.244-1.119-2.244-2.889,0-1.659.755-3,2.264-3a1.95,1.95,0,0,1,1.921,1.6,2.833,2.833,0,0,1,.043.606v1.377Zm0-10.628h0v5.714H252.5a3.243,3.243,0,0,0-2.782-1.188c-2.524,0-4.744,2.071-4.723,5.609,0,3.275,2.007,5.417,4.508,5.417a3.683,3.683,0,0,0,3.3-1.773h.065l.128,1.53h2.911c-.043-.71-.085-1.941-.085-3.144V225.828Zm-15.828,8.818h0a2.17,2.17,0,0,1,2.049-2.135,1.911,1.911,0,0,1,1.833,2.135Zm6.814,2.265a8.466,8.466,0,0,0,.108-1.314c0-2.611-1.293-5.262-4.7-5.262-3.646,0-5.327,2.955-5.327,5.628,0,3.321,2.048,5.393,5.627,5.393a9.986,9.986,0,0,0,3.818-.672l-.433-2.222a8.654,8.654,0,0,1-2.909.453c-1.531,0-2.87-.645-2.977-2.023Z" transform="translate(-215.69 -225.221)" fill="#fff" fill-rule="evenodd"/></g><g transform="translate(85.87 0.478)"><path d="M372.358,234.222c-.114-2.146-.251-4.727-.228-6.645h-.068c-.526,1.8-1.165,3.722-1.941,5.846L367.4,240.89H365.9l-2.49-7.33c-.731-2.17-1.348-4.156-1.78-5.983h-.046c-.046,1.918-.16,4.5-.3,6.805l-.411,6.6h-1.9l1.073-15.392h2.534l2.626,7.445c.64,1.9,1.165,3.585,1.554,5.183h.068c.389-1.553.936-3.242,1.621-5.183l2.74-7.445h2.535l.959,15.392h-1.941Z" transform="translate(-358.977 -225.59)" fill="#fff"/><path d="M399.017,244.413l-.159-1.393h-.069a4.115,4.115,0,0,1-3.38,1.644,3.149,3.149,0,0,1-3.38-3.174c0-2.672,2.375-4.133,6.646-4.11v-.228a2.279,2.279,0,0,0-2.512-2.558,5.5,5.5,0,0,0-2.877.823l-.457-1.325a6.861,6.861,0,0,1,3.631-.982c3.379,0,4.2,2.307,4.2,4.522v4.133a15.562,15.562,0,0,0,.183,2.649Zm-.3-5.641c-2.192-.046-4.681.342-4.681,2.489a1.778,1.778,0,0,0,1.9,1.918,2.749,2.749,0,0,0,2.671-1.85,2.076,2.076,0,0,0,.115-.639Z" transform="translate(-374.061 -229.021)" fill="#fff"/><path d="M413.792,236.809c0-1.3-.023-2.421-.091-3.449h1.758l.068,2.17h.091a3.319,3.319,0,0,1,3.06-2.421,2.172,2.172,0,0,1,.571.068v1.9a3.015,3.015,0,0,0-.685-.068,2.818,2.818,0,0,0-2.695,2.58,5.668,5.668,0,0,0-.091.936v5.892h-1.986Z" transform="translate(-383.952 -229.021)" fill="#fff"/><path d="M429.976,227.732v3.174h2.877v1.53h-2.877V238.4c0,1.37.389,2.146,1.508,2.146a4.473,4.473,0,0,0,1.164-.137l.091,1.507a4.922,4.922,0,0,1-1.781.274,2.784,2.784,0,0,1-2.169-.844,4.094,4.094,0,0,1-.777-2.877v-6.029H426.3v-1.53h1.712v-2.649Z" transform="translate(-389.701 -226.568)" fill="#fff"/></g></g></g></svg>