<svg xmlns="http://www.w3.org/2000/svg" xmlns:xlink="http://www.w3.org/1999/xlink" width="18" height="18" viewBox="0 0 18 18"><defs><style>.a{fill:none;}.b{fill:url(#a);}.c{fill:#fff;}.d{fill:#0ce277;}.e{fill:#2699fb;}.f{fill:#00aa63;}.g{fill:#e71c37;}</style><linearGradient id="a" x1="0.462" y1="0.03" x2="0.5" y2="1.077" gradientUnits="objectBoundingBox"><stop offset="0" stop-color="#faca5d"/><stop offset="1" stop-color="#ff6d21"/></linearGradient></defs><g transform="translate(0.4 0.084)"><rect class="a" width="18" height="18" transform="translate(-0.4 -0.084)"/><g transform="translate(0.6 -0.084)"><path class="b" d="M973.633,835.2H961.876a1.175,1.175,0,0,1-1.18-1.18V818.38a1.175,1.175,0,0,1,1.18-1.18h11.756a1.175,1.175,0,0,1,1.18,1.18v15.64A1.235,1.235,0,0,1,973.633,835.2Z" transform="translate(-960.696 -817.2)"/><g transform="translate(2.587 9.204)"><path class="c" d="M980.526,841.666h-5.617a.343.343,0,0,0-.348.348v.087a.343.343,0,0,0,.348.348h5.617a.369.369,0,0,0,.348-.3v-.131A.343.343,0,0,0,980.526,841.666Z" transform="translate(-971.947 -841.666)"/><path class="c" d="M967.918,847.62h5.617c.174,0,.3-.174.348-.348v-.131a.344.344,0,0,0-.348-.348h-5.617a.343.343,0,0,0-.348.348v.131A.344.344,0,0,0,967.918,847.62Z" transform="translate(-967.57 -844.876)"/><path class="c" d="M980.526,852.151h-5.617a.343.343,0,0,0-.348.348v.131a.343.343,0,0,0,.348.348h5.617c.174,0,.305-.174.348-.348V852.5A.343.343,0,0,0,980.526,852.151Z" transform="translate(-971.947 -848.232)"/><path class="c" d="M980.526,857.278h-5.617a.343.343,0,0,0-.348.348v.13a.343.343,0,0,0,.348.348h5.617c.174,0,.305-.13.348-.348v-.13A.343.343,0,0,0,980.526,857.278Z" transform="translate(-971.947 -851.443)"/><path class="c" d="M967.918,842.45h1.262a.369.369,0,0,0,.348-.3v-.131a.344.344,0,0,0-.348-.348h-1.262a.343.343,0,0,0-.348.348v.087A.343.343,0,0,0,967.918,842.45Z" transform="translate(-967.57 -841.666)"/><path class="c" d="M987.821,846.792h-1.263a.344.344,0,0,0-.348.348v.131a.344.344,0,0,0,.348.348h1.263c.174,0,.305-.174.348-.348v-.131A.344.344,0,0,0,987.821,846.792Z" transform="translate(-979.243 -844.876)"/><path class="c" d="M969.181,852.151h-1.262a.343.343,0,0,0-.348.348v.131a.343.343,0,0,0,.348.348h1.262c.174,0,.305-.174.348-.348V852.5A.344.344,0,0,0,969.181,852.151Z" transform="translate(-967.57 -848.232)"/><path class="c" d="M969.181,857.278h-1.262a.343.343,0,0,0-.348.348v.13a.343.343,0,0,0,.348.348h1.262c.174,0,.305-.13.348-.348v-.13A.343.343,0,0,0,969.181,857.278Z" transform="translate(-967.57 -851.443)"/></g><g transform="translate(12.335 5.657)"><path class="d" d="M996.629,832.808l.122-.211a.683.683,0,0,1,.933-.25h0a.683.683,0,0,1,.25.933l-2.685,4.652-1.183-.683,1.158-2.007Z" transform="translate(-993.876 -832.255)"/><path class="e" d="M1001.652,832.347h0a.683.683,0,0,0-.933.25l-.317.549,1.183.683.317-.549A.683.683,0,0,0,1001.652,832.347Z" transform="translate(-997.844 -832.255)"/><path class="f" d="M994.931,846.3l-1.372,1.01.189-1.693Z" transform="translate(-993.559 -840.621)"/></g><path class="g" d="M977.643,824.274a2.766,2.766,0,1,0-4.663,2.01.327.327,0,0,0,.032.03,2.76,2.76,0,0,0,3.73,0,.345.345,0,0,0,.032-.03A2.759,2.759,0,0,0,977.643,824.274Zm-2.766-2.164a2.163,2.163,0,0,1,1.742,3.447,2.087,2.087,0,0,0-.885-.742,1.076,1.076,0,0,0,.226-.661v-.2a1.082,1.082,0,0,0-2.165,0v.2a1.076,1.076,0,0,0,.226.661,2.091,2.091,0,0,0-.886.742,2.163,2.163,0,0,1,1.742-3.447Zm-.481,2.044v-.2a.481.481,0,1,1,.962,0v.2a.481.481,0,1,1-.962,0ZM973.57,826a1.5,1.5,0,0,1,2.615,0,2.159,2.159,0,0,1-2.615,0Z" transform="translate(-967.825 -819.898)"/></g></g></svg>