<svg xmlns="http://www.w3.org/2000/svg" xmlns:xlink="http://www.w3.org/1999/xlink" width="439.664" height="161.429" viewBox="0 0 439.664 161.429"><defs><style>.a{opacity:0.564;}.b{fill:#f5f5f5;opacity:0.361;}.c{fill:#f2f2f2;opacity:0.275;}.d{fill:#edeaf5;}.e{fill:#d5e5dd;}.f{fill:#fff;}.g{fill:#a9b4af;}.h,.n{fill:#e71c37;}.h{opacity:0.045;}.i{fill:#e3e3e3;}.j{opacity:0.164;}.k{fill:#ffd064;}.l{fill:#ffc250;}.m{fill:#e6e6e6;}.o{fill:#08ce73;}.p{fill:#c6d8cf;}.q{fill:#ede7f3;}.r{fill:#dad0e5;}.s{fill:none;}.t{fill:#b9c2bd;}.u{fill:#d1d1d1;}.v{fill:#ddd;}.w{fill:#dceae4;}.x{fill:#f1d98d;}.y{fill:#efb500;}.z{fill:#ea8401;}.aa{fill:#f5ba95;}.ab{fill:#343a40;}.ac{fill:#ff3550;}.ad{fill:#7a5da2;}.ae{fill:url(#a);}.af{fill:#0bb768;}.ag{fill:#f6bb96;}.ah{fill:#f19d89;}.ai{fill:#322253;}.aj{fill:#402f6d;}.ak{fill:#fdcbab;}.al{fill:#e20613;}.am{fill:#ac94c6;}.an{fill:#7a5ca2;}.ao{fill:url(#b);}.ap{fill:#fc3550;}.aq{fill:#ea1c37;}.ar{fill:#ff9653;}.as{fill:#ffec00;}.at{fill:#302452;}.au{fill:#f1b600;}</style><linearGradient id="a" x1="-0.327" y1="0.159" x2="0.761" y2="0.681" gradientUnits="objectBoundingBox"><stop offset="0" stop-color="#ab93c5"/><stop offset="0.033" stop-color="#af99c9"/><stop offset="0.156" stop-color="#bcabd3"/><stop offset="0.305" stop-color="#c5b7da"/><stop offset="0.508" stop-color="#cabede"/><stop offset="1" stop-color="#cbc0df"/></linearGradient><linearGradient id="b" y1="0.5" x2="1" y2="0.5" gradientUnits="objectBoundingBox"><stop offset="0" stop-color="#ac94c6"/><stop offset="1" stop-color="#ccc1e0"/></linearGradient></defs><g class="a" transform="translate(-0.004)"><path class="b" d="M498.315,195.974H78.613c-.378-9.05-2.489-15.821-2.867-24.87-.142-3.413-.23-7.056,1.553-9.973,3.713-6.078,13.006-5.308,19.18-1.757s11.386,9.1,18.309,10.765c12.351,2.968,24.324-8.337,27.411-20.658,1.994-7.956,1.438-16.39,3.5-24.328s8.08-15.915,16.282-16.111c13.1-.313,22.107,18.685,34.787,15.377,6.793-1.773,10.243-9.277,11.9-16.1,3.6-14.833,3.121-30.523,7.72-45.079,1.618-5.117,4.111-10.344,8.708-13.114,7.792-4.7,18.356-.14,23.871,7.095s7.556,16.433,10.677,24.976A98.175,98.175,0,0,0,285.74,121c9.4,8.53,21.378,15.438,34.04,14.59,16.748-1.123,29.711-15.317,37.559-30.152S369.978,74,380.254,60.727C387.3,51.632,398.248,44.047,409.582,46c15.222,2.621,22.607,20.273,24.126,35.644,1.652,16.7-.355,33.52-2.036,50.218-.866,8.6-1.548,17.76,2.4,25.451s14.365,12.7,21.561,7.909c5.171-3.443,7.106-10.648,12.639-13.471,5.011-2.561,11.392-.441,15.406,3.506s6.192,9.34,8.265,14.574C495.349,178.412,494.913,187.39,498.315,195.974Z" transform="translate(-58.647 -35.408)"/><path class="c" d="M53.063,197.51l404.779.342c-3.247-14.65-3.3-29.112-6.546-43.762-1.157-5.22-2.4-10.63-5.686-14.848s-9.243-6.865-14.119-4.673c-3.632,1.631-5.747,5.389-7.594,8.917-2.968,5.664-6.066,11.561-11.235,15.323s-13.078,4.61-17.623.113c-1.96-1.94-3.042-4.57-4.113-7.113A284.626,284.626,0,0,0,345,77.438c-3.447-4.028-7.358-8.175-12.54-9.3-7.124-1.546-14.29,3.305-18.275,9.412s-5.693,13.37-8.391,20.141c-5.785,14.511-19.533,28.234-34.917,25.516-13.269-2.345-22.292-15.915-35.5-18.586-21.151-4.277-40.59,21.021-61.392,15.283-13.179-3.636-19.76-17.834-26.907-29.49a116.129,116.129,0,0,0-36.369-37.03c-7.563-4.826-18.068-8.564-24.915-2.768-5.445,4.61-5.533,12.805-5.385,19.938.248,11.878-.131,24.056-4.433,35.131s-13.224,20.985-24.825,23.554c-3.137.7-6.546.911-9.122,2.828a13.076,13.076,0,0,0-4.055,6.1C30.852,157.186,40.057,181.915,53.063,197.51Z" transform="translate(-27.506 -36.945)"/><g transform="translate(43.164)"><g transform="translate(19.632 24.207)"><path class="d" d="M319.325,173.945a116.8,116.8,0,0,1-40.255-66.131l1.114-.234a115.679,115.679,0,0,0,39.861,65.485Z" transform="translate(-279.07 -107.58)"/></g><path class="e" d="M241.2,268.327a25.606,25.606,0,0,1,26.745,3.74c-4.066,3.186-9.214,5.216-14.358,4.732S243.956,272.7,241.2,268.327Z" transform="translate(-230.089 -206.249)"/><path class="e" d="M308.5,113.3a25.6,25.6,0,0,1,10.355-24.94c2.061,4.736,2.727,10.231.965,15.087S313.424,111.732,308.5,113.3Z" transform="translate(-281.965 -68.478)"/><path class="e" d="M191.82,174.547a25.606,25.606,0,0,1,26.745,3.74c-4.066,3.186-9.214,5.216-14.358,4.732S194.576,178.917,191.82,174.547Z" transform="translate(-191.82 -133.57)"/><path class="e" d="M357.88,207.07a25.6,25.6,0,0,1,10.355-24.94c2.061,4.736,2.727,10.231.965,15.087S362.8,205.5,357.88,207.07Z" transform="translate(-320.234 -141.149)"/><path class="e" d="M431.55,293.82a25.6,25.6,0,0,1,10.355-24.94c2.061,4.736,2.727,10.231.965,15.087S436.471,292.252,431.55,293.82Z" transform="translate(-377.327 -208.379)"/><path class="e" d="M314.86,355.067a25.606,25.606,0,0,1,26.745,3.74c-4.066,3.186-9.214,5.216-14.358,4.732S317.616,359.437,314.86,355.067Z" transform="translate(-287.175 -273.471)"/><path class="e" d="M261.165,26.234c-3.474-3.2-11.624-12.769-.837-26.234a18.814,18.814,0,0,1,7.187,16.169C267.265,19.886,264.324,24.258,261.165,26.234Z" transform="translate(-240.734)"/></g><g transform="translate(0.004 53.928)"><path class="e" d="M178.752,299.693c-.441-4.759-1.305-10.222-5.4-12.682-1.753-1.051-3.834-1.357-5.781-1.978a18.425,18.425,0,0,1-11.8-11.912c-1.285-4.169-1.5-9.423-5.328-11.512-1.967-1.073-4.446-.952-6.336-2.151-2.059-1.307-2.916-3.825-3.713-6.132-1.422-4.12-3.213-8.33-6.568-11.113s-8.692-3.625-12-.788a9.211,9.211,0,0,0-2.772,7.925,19.316,19.316,0,0,0,3.15,8.062c1.1,1.773,2.36,3.533,2.747,5.587.95,5.036-3.591,9.79-3.011,14.882.788,6.928,9.95,9.606,12.889,15.931,1.555,3.344,1.3,7.6,3.87,10.24,2.954,3.031,8.076,2.356,11.705,4.534a14.516,14.516,0,0,1,4.043,4.1c.313-.131.63-.252.95-.358a14.2,14.2,0,0,1,3.74-.758,14.363,14.363,0,0,1,3.706.333,22.41,22.41,0,0,1,11.541,6.694,27.507,27.507,0,0,1,4.291,6.123C182.978,316.854,183.963,306.974,178.752,299.693Z" transform="translate(-92.22 -239.669)"/><path class="e" d="M284.935,559.449a14.359,14.359,0,0,0-3.706-.333,14.2,14.2,0,0,0-3.74.758c-.317.106-.637.227-.95.358.461.63.914,1.269,1.375,1.89,5.279,7.092,14.167,12.574,22.728,10.373.043-.076.081-.155.122-.234a27.609,27.609,0,0,0-4.291-6.123A22.418,22.418,0,0,0,284.935,559.449Z" transform="translate(-214.316 -487.224)"/><path class="e" d="M89.357,509.921c-1.717,4-3.742,7.961-6.78,11.082s-7.239,5.333-11.59,5.148c-4.253-.18-8.143-2.608-11.082-5.686-1.413-1.481-2.858-3.236-4.887-3.485-2.338-.288-4.428,1.566-6.777,1.764-6.055.513-8.6-9.279-14.655-9.718-1.64-.119-3.233.511-4.858.758a10.783,10.783,0,0,1-9.921-3.942c-2.547-3.265-3.11-7.916-6.2-10.67-1.451-1.292-3.308-2.016-4.964-3.031a16.366,16.366,0,0,1-7.56-15.283c.277-2.693,1.692-5.7,4.358-6.168,1.672-.293,3.326.52,4.775,1.4a38.1,38.1,0,0,1,11.7,11.154,9.409,9.409,0,0,0,2.455,2.84c2.945,1.892,6.69-.425,10.168-.828,5.076-.59,9.7,3.139,12.56,7.374,1.514,2.243,2.97,4.89,5.562,5.673,3.571,1.082,6.928-1.922,10.389-3.312a12.808,12.808,0,0,1,14.329,3.724c4.482,5.542,12.538,5.45,17.679,10.389.142.137.367.279.515.146A31.266,31.266,0,0,0,89.357,509.921Z" transform="translate(-0.004 -418.661)"/><g transform="translate(34.244 12.024)"><g transform="translate(1.911)"><path class="f" d="M205.245,353.267a.385.385,0,0,1-.061-.031A111.3,111.3,0,0,1,160.7,293.522a.322.322,0,0,1,.617-.184A110.642,110.642,0,0,0,205.538,352.7a.319.319,0,0,1-.292.565Z" transform="translate(-160.688 -293.108)"/></g><g transform="translate(0 3.733)"><path class="f" d="M159.951,320.956l-.356-.164a79.289,79.289,0,0,1-7.245-3.839.321.321,0,0,1,.331-.551c2.207,1.319,4.5,2.543,6.831,3.641.387-1.6.763-3.22,1.139-4.844.407-1.764.817-3.528,1.238-5.254a.322.322,0,0,1,.626.153c-.421,1.724-.828,3.485-1.235,5.247s-.812,3.512-1.233,5.234Z" transform="translate(-152.194 -309.698)"/></g><g transform="translate(0.395 12.312)"><path class="f" d="M154.156,359.622a.323.323,0,0,1,.2-.612l13.78,3.625,3.715-14.569a.322.322,0,0,1,.623.16l-3.875,15.2-14.407-3.789A.17.17,0,0,1,154.156,359.622Z" transform="translate(-153.951 -347.823)"/></g><g transform="translate(10.309 24.609)"><path class="f" d="M198.213,416.455a.322.322,0,0,1,.135-.621l12.409.756,3.564-13.874a.323.323,0,0,1,.392-.232.319.319,0,0,1,.232.392l-3.7,14.389-12.94-.788A.448.448,0,0,1,198.213,416.455Z" transform="translate(-198.007 -402.474)"/></g></g><g transform="translate(9.385 63.991)"><g transform="translate(2.833 0.918)"><path class="f" d="M82.6,546.228a88.717,88.717,0,0,1-28.2-17.531.322.322,0,1,1,.437-.472,89.508,89.508,0,0,0,69.427,23.037.321.321,0,0,1,.353.286.326.326,0,0,1-.286.356A89.583,89.583,0,0,1,82.6,546.228Z" transform="translate(-54.303 -528.139)"/></g><path class="f" d="M41.919,531.058a.322.322,0,0,1,.083-.621l7.909-.81-.864-5.193a.32.32,0,0,1,.266-.369.323.323,0,0,1,.371.265l.977,5.868-8.591.88A.333.333,0,0,1,41.919,531.058Z" transform="translate(-41.713 -524.06)"/><g transform="translate(7.875 5.118)"><path class="f" d="M76.916,556.957a.319.319,0,0,1-.185-.189.323.323,0,0,1,.189-.414l8.69-3.229L84.249,547.2a.321.321,0,1,1,.626-.142l1.49,6.476-9.219,3.427A.334.334,0,0,1,76.916,556.957Z" transform="translate(-76.712 -546.806)"/></g><g transform="translate(16.953 6.221)"><path class="f" d="M117.262,568.383a.318.318,0,0,1-.178-.169.322.322,0,0,1,.162-.425l10.963-4.937-1.5-10.78a.321.321,0,0,1,.637-.088l1.566,11.257-11.4,5.133A.313.313,0,0,1,117.262,568.383Z" transform="translate(-117.056 -551.706)"/></g><g transform="translate(29.933 11.846)"><path class="f" d="M174.949,591.087a.339.339,0,0,1-.146-.112.324.324,0,0,1,.074-.45l6.955-4.959-2.329-8.449a.322.322,0,1,1,.621-.171l2.448,8.881-7.322,5.22A.311.311,0,0,1,174.949,591.087Z" transform="translate(-174.743 -576.708)"/></g><g transform="translate(39.411 16.68)"><path class="f" d="M217.07,612.646a.309.309,0,0,1-.131-.092.324.324,0,0,1,.038-.455l8.535-7.178-2.842-6.276a.321.321,0,0,1,.585-.266L226.3,605.1l-8.908,7.493A.317.317,0,0,1,217.07,612.646Z" transform="translate(-216.863 -598.191)"/></g><g transform="translate(52.357 16.372)"><path class="f" d="M274.6,614.9a.292.292,0,0,1-.088-.052.319.319,0,0,1-.043-.452l7.583-9.194-4.806-7.887a.323.323,0,0,1,.551-.335l5.042,8.276L274.97,614.8A.321.321,0,0,1,274.6,614.9Z" transform="translate(-274.398 -596.821)"/></g></g></g><g transform="translate(78.226 50.06)"><path class="f" d="M404.654,337.865H360.919a5.03,5.03,0,0,1-5.029-5.029V235.759a5.03,5.03,0,0,1,5.029-5.029h43.735a5.03,5.03,0,0,1,5.029,5.029v97.077A5.03,5.03,0,0,1,404.654,337.865Z" transform="translate(-354.034 -228.874)"/><rect class="f" width="52.671" height="106.176" transform="translate(2.534 2.815)"/><path class="g" d="M398.261,333.327H354.525a6.894,6.894,0,0,1-6.885-6.885V229.365a6.894,6.894,0,0,1,6.885-6.885h43.735a6.894,6.894,0,0,1,6.885,6.885v97.077A6.894,6.894,0,0,1,398.261,333.327ZM354.525,226.193a3.175,3.175,0,0,0-3.173,3.173v97.077a3.178,3.178,0,0,0,3.173,3.173h43.735a3.176,3.176,0,0,0,3.173-3.173V229.365a3.176,3.176,0,0,0-3.173-3.173Z" transform="translate(-347.64 -222.48)"/><path class="g" d="M440.8,243.239H418.56a2.161,2.161,0,0,1-2.16-2.16v-2.1h26.558v2.1A2.157,2.157,0,0,1,440.8,243.239Z" transform="translate(-400.928 -235.267)"/><path class="f" d="M401.405,424.471c.275,0,.551.007.833.011l.218,0c.079,0,.166,0,.263,0a2.469,2.469,0,0,0,.317-.034c.027,0,.059-.011.088-.018l.092-.022c.036-.009.07-.02.1-.031s.067-.022.1-.036a1.757,1.757,0,0,0,.378-.2,1.782,1.782,0,0,0,.315-.295l.068-.086c.023-.031.043-.058.059-.083.036-.052.065-.1.095-.153a2.89,2.89,0,0,0,.137-.281c.038-.088.068-.169.095-.241s.052-.14.079-.209c.052-.14.1-.279.158-.419l.32-.848.081-.214.032-.083h0l0,0,.029.054c.038.072.079.144.117.216.279.513.563,1.028.846,1.548l.077.117c.013.018.025.04.038.056l.04.045.081.088c.027.025.054.043.081.065l.081.063c.025.016.049.027.074.043l.074.041.018.011a.077.077,0,0,0,.016.007l.031.011.13.047.065.016c.027,0,.05.011.081.016a1.288,1.288,0,0,0,.414-.007c.036-.007.072-.016.106-.025a1.021,1.021,0,0,0,.1-.034.831.831,0,0,0,.09-.038c.027-.013.054-.027.077-.04s.043-.025.061-.036.018-.018.029-.027l.027-.031.113-.128.225-.259.029-.031L408.4,423l.007-.009s0-.011,0-.018l.031-.146c.023-.1.043-.2.065-.293.043-.2.086-.392.13-.587.023-.1.04-.2.061-.3s.041-.2.061-.3c.025-.124.05-.25.074-.376.02-.1.043-.2.063-.3s.043-.2.063-.3.045-.2.065-.3c.043-.2.09-.4.135-.605q.277-1.215.608-2.435l.169-.61.176-.61.045-.153,0,0h0l0-.007,0-.016.007-.032c0-.007.007-.011.011-.011s.007,0,.009.009l.009.027,0,.018,0,.009s0,0,0,.007l.025.131c.268,1.4.52,2.8.756,4.187s.459,2.774.666,4.138q.155,1.023.3,2.032c.038.27.074.54.11.808.022.162.043.322.065.482s.04.324.063.484c.04.322.083.644.124.965s.081.641.122.959c.065.135.131.27.194.4.032.068.065.135.1.2l.047.1.025.049c0,.011.007.011.011.014l.009.009.3.257.036.031a.336.336,0,0,0,.045.027.789.789,0,0,0,.187.061,1.055,1.055,0,0,0,.254.018,1.082,1.082,0,0,0,.232-.038.789.789,0,0,0,.081-.029.369.369,0,0,0,.045-.025c.02-.016.04-.029.063-.047l.07-.054c.023-.018.052-.043.077-.065a2.036,2.036,0,0,0,.171-.171c.016-.016.031-.038.047-.056s.031-.038.049-.063l.049-.072a.24.24,0,0,0,.025-.04l.025-.043a1.443,1.443,0,0,0,.18-.553c.043-.261.085-.522.128-.781q.236-1.445.466-2.844c.171-1.062.338-2.088.5-3.067.079-.491.158-.97.232-1.436.018-.117.038-.232.056-.349l.027-.173,0-.02v-.007l0-.014c0-.038.009-.074.016-.112s.007-.056.011-.083l.007-.04a.119.119,0,0,1,.009-.04.065.065,0,0,1,.068-.034.06.06,0,0,1,.031.02c.007.011.011.022.018.031.025.045.049.088.072.131.011.023.025.045.036.065s.011.022.018.034l.085.167c.122.236.238.464.353.684l.171.331c.061.115.126.234.2.358a2.569,2.569,0,0,0,.279.369,2.024,2.024,0,0,0,.391.333,1.9,1.9,0,0,0,.461.209,2.189,2.189,0,0,0,.432.081,3.73,3.73,0,0,0,.686-.013c.2-.02.351-.043.506-.061l.794-.1c.376-.047.628-.079.743-.095a1.829,1.829,0,1,0,0-1.6c-.045,0-.092.009-.139.016-.076.011-.349.047-.792.106-.223.029-.486.065-.792.108-.076.011-.155.02-.236.032s-.157.023-.232.029a2.211,2.211,0,0,1-.389.018.728.728,0,0,1-.126-.018.322.322,0,0,1-.072-.027.416.416,0,0,1-.081-.063,1.179,1.179,0,0,1-.119-.153,2.64,2.64,0,0,1-.144-.245q-.081-.155-.169-.317c-.117-.218-.236-.445-.36-.68-.034-.063-.067-.126-.1-.191-.059-.113-.117-.227-.178-.342-.119-.23-.238-.461-.362-.7-.061-.117-.121-.236-.185-.351-.034-.052-.065-.106-.1-.155l-.1-.122a.351.351,0,0,0-.052-.049l-.052-.045-.052-.045a.305.305,0,0,0-.05-.032l-.1-.061c-.009,0-.016-.011-.025-.016l-.02-.009-.043-.02-.085-.041-.041-.018-.043-.014a.88.88,0,0,0-.11-.027.655.655,0,0,0-.065-.009c-.022,0-.047,0-.072,0a1.094,1.094,0,0,0-.306.036.932.932,0,0,0-.261.115.812.812,0,0,0-.153.133l-.07.074a.168.168,0,0,0-.018.02l-.018.025-.038.05-.038.049-.018.025-.018.034-.074.133c-.022.056-.043.11-.065.167a.292.292,0,0,0-.014.047l-.011.052-.025.1c-.065.407-.128.821-.2,1.24-.016.1-.031.2-.047.3-.009.056-.018.115-.025.173-.018.115-.034.232-.052.349q-.1.7-.214,1.44-.219,1.475-.457,3.074c-.009.067-.02.133-.029.2l0,.025v.011l0,.013,0,.029c0,.04-.009.081-.014.119-.009.088-.02.176-.029.263-.025.2-.049.414-.074.626-.007.059-.014.117-.023.178l-.011.092a.187.187,0,0,1-.032.086.144.144,0,0,1-.148.056.088.088,0,0,1-.056-.041.216.216,0,0,1-.016-.063c-.034-.2-.07-.4-.106-.6-.022-.131-.047-.261-.07-.394-.013-.072-.025-.142-.038-.214l-.02-.113,0-.029-.009-.054-.02-.126c-.106-.675-.214-1.355-.328-2.041q-.341-2.055-.731-4.154c-.261-1.4-.536-2.8-.828-4.2l-.275-1.316-.034-.167c-.007-.027-.011-.056-.018-.081l-.023-.058-.088-.239c-.058-.16-.115-.319-.171-.479l-.043-.119a.325.325,0,0,0-.022-.056l-.011-.025a.169.169,0,0,0-.018-.025.376.376,0,0,0-.223-.14.47.47,0,0,0-.284.018.339.339,0,0,0-.187.169c-.07.148-.142.3-.209.448-.009.02-.018.036-.027.059l-.027.067-.054.137-.106.272c-.079.254-.151.511-.225.761l-.108.376-.094.342c-.056.207-.11.416-.167.623s-.106.416-.16.623q-.311,1.245-.572,2.484c-.043.207-.086.412-.126.619l-.061.308c-.02.1-.038.2-.059.308s-.038.2-.059.308-.036.2-.054.3c-.034.191-.068.387-.1.585s-.065.4-.1.6l-.025.153a.567.567,0,0,1-.036.151.651.651,0,0,1-.036.068.307.307,0,0,1-.052.056.318.318,0,0,1-.063.045.263.263,0,0,1-.07.027.33.33,0,0,1-.148.009.314.314,0,0,1-.135-.056.369.369,0,0,1-.054-.049.584.584,0,0,1-.04-.061l-.072-.126c-.1-.173-.2-.342-.295-.515-.326-.569-.65-1.13-.968-1.683-.074-.128-.146-.254-.221-.38a.62.62,0,0,0-.059-.09.279.279,0,0,0-.061-.052l-.022-.013a.312.312,0,0,0-.392.095.54.54,0,0,0-.029.047.486.486,0,0,0-.02.052l-.036.1-.142.41c-.2.563-.389,1.118-.578,1.663-.049.142-.1.281-.146.423s-.094.279-.151.423a1.743,1.743,0,0,1-.234.428,1,1,0,0,1-.412.311,1.54,1.54,0,0,1-.479.1c-.153.011-.3.011-.436.013l-.835.014q-.824.013-1.607.025l-.866.013c.115.2.232.392.353.585l.509.007C400.321,424.455,400.856,424.464,401.405,424.471Z" transform="translate(-387.389 -370.014)"/><g transform="translate(7.674 64.839)"><rect class="h" width="43" height="8" rx="3" transform="translate(-0.058 0.101)"/><path class="i" d="M1.734-2.923H1.086v1.287H.506V-4.977H1.681a1.368,1.368,0,0,1,.893.259.917.917,0,0,1,.314.75.939.939,0,0,1-.162.561,1.029,1.029,0,0,1-.451.348l.75,1.393v.03H2.4Zm-.647-.466h.6a.664.664,0,0,0,.459-.148.516.516,0,0,0,.165-.405.55.55,0,0,0-.153-.415A.648.648,0,0,0,1.7-4.508H1.086Zm4.306.262H4.02V-2.1h1.6v.464H3.439V-4.977H5.608v.468H4.02v.923H5.392ZM8.558-4.508H7.516v2.873H6.94V-4.508H5.907v-.468H8.558Zm2.883-.468v2.233A1.085,1.085,0,0,1,11.1-1.9a1.294,1.294,0,0,1-.908.311A1.3,1.3,0,0,1,9.281-1.9a1.09,1.09,0,0,1-.337-.85V-4.977h.578v2.235a.71.71,0,0,0,.17.512.662.662,0,0,0,.5.177q.67,0,.67-.707V-4.977Zm1.848,2.054h-.647v1.287h-.581V-4.977h1.175a1.368,1.368,0,0,1,.893.259.917.917,0,0,1,.314.75.939.939,0,0,1-.162.561,1.029,1.029,0,0,1-.451.348l.75,1.393v.03h-.622Zm-.647-.466h.6a.664.664,0,0,0,.459-.148.516.516,0,0,0,.165-.405.55.55,0,0,0-.153-.415.648.648,0,0,0-.456-.151h-.613Zm5,1.753h-.581L15.575-4.006v2.371h-.581V-4.977h.581L17.069-2.6v-2.38h.576Z" transform="translate(11.965 7.592)"/></g><g transform="translate(7.674 77.662)"><rect class="h" width="43" height="8" rx="3" transform="translate(-0.058 0.278)"/><path class="i" d="M3-2.745a1.206,1.206,0,0,1-.395.834,1.346,1.346,0,0,1-.916.3A1.3,1.3,0,0,1,.99-1.8a1.243,1.243,0,0,1-.469-.538,1.942,1.942,0,0,1-.172-.81v-.312a1.956,1.956,0,0,1,.168-.833A1.263,1.263,0,0,1,1-4.85a1.341,1.341,0,0,1,.724-.2,1.288,1.288,0,0,1,.89.3A1.256,1.256,0,0,1,3-3.9H2.426a.825.825,0,0,0-.21-.52.694.694,0,0,0-.495-.159.678.678,0,0,0-.582.277,1.381,1.381,0,0,0-.208.811v.3a1.465,1.465,0,0,0,.194.826.644.644,0,0,0,.568.285.751.751,0,0,0,.514-.154.8.8,0,0,0,.218-.512Zm2.39.31H4.1l-.271.778h-.6L4.487-5h.521L6.272-1.658H5.667ZM4.262-2.9h.968L4.746-4.29ZM9.3-1.658H8.722L7.232-4.028v2.371H6.652V-5h.581l1.494,2.38V-5H9.3Zm3.237-1.088a1.206,1.206,0,0,1-.395.834,1.346,1.346,0,0,1-.916.3,1.3,1.3,0,0,1-.7-.189,1.243,1.243,0,0,1-.469-.538,1.942,1.942,0,0,1-.172-.81v-.312a1.956,1.956,0,0,1,.168-.833,1.263,1.263,0,0,1,.481-.555,1.341,1.341,0,0,1,.724-.2,1.288,1.288,0,0,1,.89.3,1.256,1.256,0,0,1,.392.849h-.578a.825.825,0,0,0-.21-.52.694.694,0,0,0-.495-.159.678.678,0,0,0-.582.277,1.381,1.381,0,0,0-.208.811v.3a1.465,1.465,0,0,0,.194.826.644.644,0,0,0,.568.285.751.751,0,0,0,.514-.154.8.8,0,0,0,.218-.512Zm2.472-.4H13.639v1.028h1.6v.464H13.058V-5h2.169v.468H13.639v.923h1.372ZM16.3-2.121h1.517v.464h-2.1V-5H16.3Z" transform="translate(12.017 7.549)"/></g><g class="j" transform="translate(11.382 22.711)"><path class="k" d="M33.266,30.017a1.172,1.172,0,0,1-1.172,1.172H1.172A1.172,1.172,0,0,1,0,30.017V1.189A1.172,1.172,0,0,1,1.172.017H32.094a1.172,1.172,0,0,1,1.172,1.172Z" transform="translate(0 -0.017)"/><path class="l" d="M303.885.017a1.153,1.153,0,0,1,1.153,1.153V31.189h1.212a1.172,1.172,0,0,0,1.172-1.172V1.189A1.172,1.172,0,0,0,306.25.017h-2.365Z" transform="translate(-274.156 -0.017)"/><path class="f" d="M146.837,5.489h-4.1a.687.687,0,0,1-.687-.687V.017h5.472V4.8A.687.687,0,0,1,146.837,5.489Z" transform="translate(-128.155 -0.017)"/><path class="m" d="M171.26.017V4.8a.687.687,0,0,1-.687.687h2a.687.687,0,0,0,.687-.687V.017Z" transform="translate(-153.886 -0.017)"/><g transform="translate(3.129 5.498)"><g transform="translate(2.163 0.826)"><path class="n" d="M58.846,195.288a.755.755,0,0,1-.755-.755v-5.128a.755.755,0,1,1,1.511,0v5.128A.755.755,0,0,1,58.846,195.288Z" transform="translate(-58.091 -188.65)"/></g><g transform="translate(0 0)"><path class="n" d="M41.062,183.858a.753.753,0,0,1-.531-.218L38.9,182.028l-1.632,1.612a.755.755,0,0,1-1.062-1.075l2.163-2.136a.755.755,0,0,1,1.062,0l2.163,2.136a.755.755,0,0,1-.531,1.293Z" transform="translate(-35.981 -180.212)"/></g></g><g transform="translate(13.157 19.32) rotate(180)"><g transform="translate(2.163 0.826)"><path class="o" d="M.755,6.638A.755.755,0,0,1,0,5.883V.755a.755.755,0,0,1,1.511,0V5.883A.755.755,0,0,1,.755,6.638Z" transform="translate(0 0)"/></g><g transform="translate(0 0)"><path class="o" d="M.755,3.647A.755.755,0,0,1,.225,2.354L2.387.218a.755.755,0,0,1,1.062,0L5.612,2.354A.755.755,0,1,1,4.55,3.429L2.918,1.817,1.286,3.429A.753.753,0,0,1,.755,3.647Z"/></g></g></g></g><g transform="translate(140.554 101.57)"><g transform="translate(0 3.555)"><path class="e" d="M648.957,474.979A53.824,53.824,0,0,0,624.64,467.2a83.128,83.128,0,0,0,9.984,32.3,53.573,53.573,0,0,0,7.47,10.5c.072-1.458.18-2.912.3-4.352C643.291,495.194,644.974,484.623,648.957,474.979Z" transform="translate(-624.64 -467.2)"/><path class="p" d="M731.781,524.424a87.1,87.1,0,0,0-20.22-20.991c-.821-.585-1.661-1.136-2.507-1.663-3.98,9.646-5.664,20.217-6.561,30.667-.124,1.44-.232,2.894-.3,4.352,4.106,4.419,9.07,7.848,14.923,9.07a154.444,154.444,0,0,0,20.463-9.5C736.777,531.969,734.353,528.065,731.781,524.424Z" transform="translate(-684.74 -493.991)"/><g transform="translate(3.306 3.576)"><path class="f" d="M659.433,509.554a.323.323,0,0,1-.279-.1,148.358,148.358,0,0,1-19.774-25.876.321.321,0,0,1,.551-.331,147.774,147.774,0,0,0,19.688,25.764.319.319,0,0,1-.011.455A.324.324,0,0,1,659.433,509.554Z" transform="translate(-639.334 -483.094)"/><g transform="translate(0.101 0.93)"><path class="f" d="M645.937,495.717l-5.884-.916a.321.321,0,1,1,.1-.635l5.3.826,1.883-7.522a.323.323,0,0,1,.626.158Z" transform="translate(-639.781 -487.227)"/></g><g transform="translate(2.701 3.475)"><path class="f" d="M660.461,511.386l-8.807-.16a.322.322,0,1,1,.013-.644l8.26.149,2.153-11.93a.321.321,0,1,1,.632.115Z" transform="translate(-651.339 -498.537)"/></g><g transform="translate(5.529 5.761)"><path class="f" d="M675.049,525.063l-10.776,1.577a.322.322,0,0,1-.092-.637l10.319-1.51,2.842-15.532a.321.321,0,1,1,.632.115Z" transform="translate(-663.906 -508.697)"/></g></g></g><g transform="translate(25.596)"><path class="q" d="M745.849,503.735c-2.266-2.594-3.458-5.938-4.421-9.246a67.322,67.322,0,0,1-2.957-22.328,41.032,41.032,0,0,1,7.2-20.762,64.272,64.272,0,0,1,14.718,21.583c3.029,7.3,4.61,15.9,1.053,22.96A119.337,119.337,0,0,1,745.849,503.735Z" transform="translate(-738.396 -451.4)"/><g transform="translate(1.989 3.828)"><g transform="translate(5.647)"><path class="f" d="M778.861,493.2a.252.252,0,0,0,.077-.216,114.716,114.716,0,0,0-6.125-24.411.249.249,0,0,0-.466.173,114.217,114.217,0,0,1,6.1,24.306.251.251,0,0,0,.281.214A.246.246,0,0,0,778.861,493.2Z" transform="translate(-772.332 -468.412)"/></g><g transform="translate(2.526 3.845)"><path class="f" d="M764.473,489.872l2.279-4a.249.249,0,1,0-.432-.247l-2.054,3.6-5.454-2.484a.248.248,0,0,0-.2.452Z" transform="translate(-758.461 -485.501)"/></g><g transform="translate(1.28 9.103)"><path class="f" d="M761.678,514.668l4.145-5.4a.25.25,0,0,0-.045-.349.246.246,0,0,0-.349.045l-3.886,5.065-8.249-4.442a.249.249,0,1,0-.236.439Z" transform="translate(-752.927 -508.866)"/></g><g transform="translate(0 14.234)"><path class="f" d="M758.441,538.066l6.141-5.756a.248.248,0,1,0-.34-.362l-5.88,5.511L747.6,531.7a.249.249,0,1,0-.236.439Z" transform="translate(-747.237 -531.669)"/></g></g></g></g><g transform="translate(311.562 60.622)"><path class="e" d="M1406.645,325.572c.414-4.451,1.219-9.563,5.054-11.863,1.638-.983,3.587-1.269,5.409-1.85a17.234,17.234,0,0,0,11.037-11.145c1.2-3.9,1.4-8.816,4.984-10.769,1.841-1,4.158-.889,5.927-2.014,1.926-1.222,2.729-3.578,3.472-5.736,1.33-3.854,3.006-7.794,6.145-10.4s8.132-3.391,11.228-.738a8.609,8.609,0,0,1,2.592,7.414,18.064,18.064,0,0,1-2.948,7.542,15.843,15.843,0,0,0-2.57,5.227c-.889,4.712,3.36,9.16,2.817,13.921-.738,6.483-9.309,8.987-12.058,14.9-1.453,3.128-1.213,7.108-3.62,9.579-2.763,2.835-7.554,2.2-10.949,4.241a13.567,13.567,0,0,0-3.782,3.83c-.293-.124-.59-.236-.887-.335a13.217,13.217,0,0,0-3.5-.711,13.51,13.51,0,0,0-3.467.311,20.952,20.952,0,0,0-10.8,6.262,25.771,25.771,0,0,0-4.014,5.727C1402.692,341.627,1401.772,332.383,1406.645,325.572Z" transform="translate(-1399.127 -269.418)"/><path class="r" d="M1433.193,568.577a12.21,12.21,0,0,1,6.966.4c.3.1.594.212.887.335-.432.59-.855,1.188-1.287,1.769-4.937,6.633-13.253,11.764-21.264,9.7-.04-.072-.074-.146-.115-.218a25.768,25.768,0,0,1,4.014-5.727A20.956,20.956,0,0,1,1433.193,568.577Z" transform="translate(-1410.788 -501.01)"/><path class="e" d="M1389.516,522.253a33.439,33.439,0,0,0,6.343,10.366c2.842,2.918,6.773,4.991,10.843,4.817,3.978-.169,7.619-2.439,10.369-5.319,1.321-1.384,2.673-3.029,4.572-3.26,2.187-.27,4.145,1.465,6.341,1.651,5.664.482,8.04-8.681,13.71-9.093,1.534-.11,3.024.477,4.545.711a10.083,10.083,0,0,0,9.279-3.688c2.383-3.053,2.909-7.405,5.8-9.982a30.737,30.737,0,0,1,4.644-2.835,15.309,15.309,0,0,0,7.072-14.3c-.259-2.518-1.582-5.333-4.077-5.769a6.7,6.7,0,0,0-4.466,1.312,35.652,35.652,0,0,0-10.947,10.434,8.788,8.788,0,0,1-2.3,2.655c-2.754,1.771-6.26-.4-9.511-.774-4.748-.551-9.077,2.936-11.75,6.9-1.418,2.1-2.779,4.572-5.2,5.308-3.339,1.013-6.48-1.8-9.718-3.1a11.987,11.987,0,0,0-13.406,3.483c-4.194,5.184-11.73,5.1-16.538,9.718-.133.128-.344.261-.482.137A28.836,28.836,0,0,1,1389.516,522.253Z" transform="translate(-1384.637 -436.879)"/><g transform="translate(12.551 11.25)"><path class="f" d="M1440.827,375.7a.267.267,0,0,0,.056-.029A104.124,104.124,0,0,0,1482.5,319.8a.3.3,0,0,0-.576-.175,103.5,103.5,0,0,1-41.368,55.537.3.3,0,0,0-.086.416A.3.3,0,0,0,1440.827,375.7Z" transform="translate(-1440.416 -319.414)"/><g transform="translate(34.22 3.487)"><path class="f" d="M1594.905,345.445l.333-.155a74.67,74.67,0,0,0,6.777-3.591.3.3,0,1,0-.308-.515c-2.063,1.233-4.212,2.378-6.39,3.4-.362-1.492-.713-3.013-1.064-4.532-.383-1.649-.763-3.3-1.159-4.917a.3.3,0,0,0-.585.144c.394,1.613.776,3.26,1.157,4.908s.76,3.287,1.154,4.9Z" transform="translate(-1592.5 -334.91)"/></g><g transform="translate(26.178 11.519)"><path class="f" d="M1573.9,381.646a.3.3,0,0,0-.184-.572l-12.891,3.391-3.474-13.629a.3.3,0,0,0-.585.149l3.625,14.216,13.478-3.546Z" transform="translate(-1556.759 -370.609)"/></g><g transform="translate(18.381 23.017)"><path class="f" d="M1537.771,434.788a.3.3,0,0,0-.128-.583l-11.611.707-3.334-12.981a.3.3,0,0,0-.583.151l3.458,13.462,12.106-.736A.3.3,0,0,0,1537.771,434.788Z" transform="translate(-1522.105 -421.705)"/></g><g transform="translate(8.695 32.521)"><path class="f" d="M1494.426,479.241a.3.3,0,0,0,.191-.257.3.3,0,0,0-.277-.326l-11.329-.932-3.357-13.555a.3.3,0,1,0-.585.144l3.463,13.973,11.761.968A.225.225,0,0,0,1494.426,479.241Z" transform="translate(-1479.06 -463.943)"/></g></g><g transform="translate(11.254 59.865)"><g transform="translate(0 0.859)"><path class="f" d="M1473.963,556.211a83.036,83.036,0,0,0,26.38-16.4.3.3,0,0,0-.41-.441,83.727,83.727,0,0,1-64.949,21.549.3.3,0,0,0-.063.6A83.75,83.75,0,0,0,1473.963,556.211Z" transform="translate(-1434.652 -539.29)"/></g><g transform="translate(60.064)"><path class="f" d="M1709.769,542.017a.3.3,0,0,0-.079-.58l-7.4-.756.808-4.858a.3.3,0,0,0-.594-.1l-.913,5.49,8.037.821A.27.27,0,0,0,1709.769,542.017Z" transform="translate(-1701.59 -535.472)"/></g><g transform="translate(52.04 4.787)"><path class="f" d="M1674.768,566.244a.3.3,0,0,0,0-.563l-8.13-3.022,1.274-5.544a.3.3,0,0,0-.225-.36.3.3,0,0,0-.36.227l-1.393,6.057,8.625,3.206A.292.292,0,0,0,1674.768,566.244Z" transform="translate(-1665.93 -556.748)"/></g><g transform="translate(41.485 5.82)"><path class="f" d="M1629.919,576.936a.293.293,0,0,0,.167-.158.3.3,0,0,0-.151-.4l-10.256-4.617,1.4-10.085a.3.3,0,0,0-.6-.083l-1.465,10.53,10.668,4.8A.3.3,0,0,0,1629.919,576.936Z" transform="translate(-1619.02 -561.335)"/></g><g transform="translate(33.108 11.079)"><path class="f" d="M1588.923,598.164a.283.283,0,0,0,.135-.106.3.3,0,0,0-.07-.421l-6.505-4.64,2.178-7.9a.3.3,0,1,0-.58-.16l-2.291,8.31,6.849,4.883A.288.288,0,0,0,1588.923,598.164Z" transform="translate(-1581.79 -584.71)"/></g><g transform="translate(22.739 15.599)"><path class="f" d="M1544.346,618.325a.307.307,0,0,0,.122-.088.3.3,0,0,0-.036-.425l-7.984-6.714,2.657-5.873a.3.3,0,0,0-.549-.247l-2.846,6.289,8.332,7.009A.3.3,0,0,0,1544.346,618.325Z" transform="translate(-1535.71 -604.799)"/></g><g transform="translate(11.554 15.318)"><path class="f" d="M1493.711,620.455a.289.289,0,0,0,.083-.05.3.3,0,0,0,.041-.423l-7.095-8.6,4.493-7.376a.3.3,0,0,0-.1-.414.3.3,0,0,0-.414.1L1486,611.432l7.367,8.933A.307.307,0,0,0,1493.711,620.455Z" transform="translate(-1486 -603.547)"/></g></g></g><g transform="translate(138.506 0.95)"><path class="g" d="M839.759,74.7V212.724a3.425,3.425,0,0,1-3.418,3.425H740a3.425,3.425,0,0,1-3.418-3.425V74.7A3.423,3.423,0,0,1,740,71.28h96.343A3.423,3.423,0,0,1,839.759,74.7Z" transform="translate(-709.345 -56.191)"/><path class="f" d="M835.738,99.557l-36.992-.387H749.5V232.536h96.759V118.966C846.259,116.543,840.636,102.6,835.738,99.557Z" transform="translate(-719.357 -77.805)"/><path class="s" d="M952.842,17.47a4.5,4.5,0,1,0,4.5,4.5A4.506,4.506,0,0,0,952.842,17.47Z" transform="translate(-873.456 -14.489)"/><path class="g" d="M841.667,127.94c0,.027-.007.054-.007.081a2.251,2.251,0,0,0,2.259,2.259H896.38a2.251,2.251,0,0,0,1.6-.659,2.279,2.279,0,0,0,.659-1.6c0-.027,0-.054-.007-.081Z" transform="translate(-790.78 -100.102)"/><path class="t" d="M897.089,29.988l-16.1-5.207a4.842,4.842,0,0,1-3.357-4.615V12.318a6.112,6.112,0,0,0,.027-.612,7.483,7.483,0,1,0-14.965,0v8.463a4.842,4.842,0,0,1-3.357,4.615l-16.1,5.207a2.254,2.254,0,0,0-1.562,2.072h56.966A2.245,2.245,0,0,0,897.089,29.988ZM870.182,16.2a4.5,4.5,0,1,1,4.5-4.5A4.5,4.5,0,0,1,870.182,16.2Z" transform="translate(-790.796 -4.22)"/><path class="t" d="M1117.415,100.89a5.237,5.237,0,0,1,2.1,4.6,7.567,7.567,0,0,1-2.2,4.691,14.026,14.026,0,0,1-4.363,2.934l14.977,7.185C1127.354,111.686,1122.708,104.285,1117.415,100.89Z" transform="translate(-1001.035 -79.138)"/><path class="u" d="M720.89,552.784l7.9,36.344,1.078-.234-1.109-5.105h13.393l1.161,5.339,1.078-.234-7.9-36.344-1.078.234,1.121,5.157H723.142l-1.172-5.391Zm15.884,6.26,1.1,5.083H724.486l-1.1-5.083Zm-10.945,11.269-1.1-5.083h13.393l1.1,5.083Zm13.633,1.1,1.1,5.083H727.175l-1.1-5.083Zm-10.945,11.268-1.1-5.083h13.393l1.1,5.083Z" transform="translate(-697.185 -429.17)"/><path class="v" d="M652.289,583.778h13.393l-1.109,5.106,1.078.234,7.9-36.344-1.078-.234-1.172,5.391H657.905l1.121-5.157-1.078-.234-7.9,36.344,1.078.234Zm14.977-7.288H653.873l1.1-5.083H668.37Zm-10.945-11.269h13.393l-1.1,5.083H655.216Zm14.738-6.186-1.1,5.083H656.562l1.1-5.083Zm-18.53,23.64,1.1-5.083h13.393l-1.1,5.083Z" transform="translate(-642.285 -429.162)"/><rect class="v" width="19.214" height="1.316" transform="translate(13.219 122.838)"/><g transform="translate(41.438 39.84)"><path class="w" d="M912.575,184.741H857.6a.985.985,0,0,1-.985-.986h0a.985.985,0,0,1,.985-.986h54.979a.985.985,0,0,1,.986.986h0A.987.987,0,0,1,912.575,184.741Z" transform="translate(-843.805 -182.435)"/><path class="w" d="M905.208,203.221H857.6a.985.985,0,0,1-.985-.986h0a.985.985,0,0,1,.985-.986h47.612a.985.985,0,0,1,.986.986h0A.988.988,0,0,1,905.208,203.221Z" transform="translate(-843.805 -196.757)"/><path class="w" d="M884.092,221.711H857.586a.985.985,0,0,1-.986-.986h0a.985.985,0,0,1,.986-.986h26.506a.985.985,0,0,1,.986.986h0A.985.985,0,0,1,884.092,221.711Z" transform="translate(-843.797 -211.086)"/><g transform="translate(0)"><path class="w" d="M809.008,192.24H801.97a1.961,1.961,0,0,1-1.96-1.96V183.24a1.963,1.963,0,0,1,1.96-1.96h7.038a1.961,1.961,0,0,1,1.96,1.96v7.041A1.963,1.963,0,0,1,809.008,192.24Zm-7.038-10.288a1.288,1.288,0,0,0-1.287,1.287v7.041a1.288,1.288,0,0,0,1.287,1.287h7.038a1.288,1.288,0,0,0,1.287-1.287V183.24a1.288,1.288,0,0,0-1.287-1.287Z" transform="translate(-800.01 -181.28)"/><path class="w" d="M2.5,58.285.625,56.409,0,57.034l2.5,2.5,5.36-5.36-.625-.625Z" transform="translate(1.343 -51.338)"/></g></g><g transform="translate(41.508 59.479)"><path class="w" d="M912.575,272.851H857.6a.985.985,0,0,1-.985-.986h0a.985.985,0,0,1,.985-.986h54.979a.985.985,0,0,1,.986.986h0A.987.987,0,0,1,912.575,272.851Z" transform="translate(-843.874 -270.358)"/><path class="w" d="M905.208,291.331H857.6a.985.985,0,0,1-.985-.986h0a.985.985,0,0,1,.985-.986h47.612a.985.985,0,0,1,.986.986h0A.987.987,0,0,1,905.208,291.331Z" transform="translate(-843.874 -284.68)"/><path class="w" d="M884.092,309.821H857.586a.985.985,0,0,1-.986-.986h0a.985.985,0,0,1,.986-.986h26.506a.985.985,0,0,1,.986.986h0A.985.985,0,0,1,884.092,309.821Z" transform="translate(-843.867 -299.009)"/><g transform="translate(0 0)"><path class="w" d="M809.008,280.35H801.97a1.961,1.961,0,0,1-1.96-1.96V271.35a1.963,1.963,0,0,1,1.96-1.96h7.038a1.961,1.961,0,0,1,1.96,1.96v7.041A1.961,1.961,0,0,1,809.008,280.35Zm-7.038-10.288a1.288,1.288,0,0,0-1.287,1.287v7.041a1.288,1.288,0,0,0,1.287,1.287h7.038a1.288,1.288,0,0,0,1.287-1.287V271.35a1.288,1.288,0,0,0-1.287-1.287Z" transform="translate(-800.01 -269.39)"/><path class="w" d="M2.5,58.285.625,56.409,0,57.034l2.5,2.5,5.36-5.36-.625-.625Z" transform="translate(1.274 -50.864)"/></g></g><g transform="translate(41.508 79.622)"><path class="w" d="M912.575,360.961H857.6a.985.985,0,0,1-.985-.986h0a.985.985,0,0,1,.985-.986h54.979a.985.985,0,0,1,.986.986h0A.987.987,0,0,1,912.575,360.961Z" transform="translate(-843.874 -358.785)"/><path class="w" d="M905.208,379.451H857.6a.985.985,0,0,1-.985-.986h0a.985.985,0,0,1,.985-.986h47.612a.985.985,0,0,1,.986.986h0A.988.988,0,0,1,905.208,379.451Z" transform="translate(-843.874 -373.114)"/><path class="w" d="M884.092,397.931H857.586a.985.985,0,0,1-.986-.986h0a.985.985,0,0,1,.986-.986h26.506a.985.985,0,0,1,.986.986h0A.985.985,0,0,1,884.092,397.931Z" transform="translate(-843.867 -387.436)"/><g transform="translate(0 0)"><path class="w" d="M809.008,368.47H801.97a1.961,1.961,0,0,1-1.96-1.96V359.47a1.963,1.963,0,0,1,1.96-1.96h7.038a1.961,1.961,0,0,1,1.96,1.96v7.041A1.963,1.963,0,0,1,809.008,368.47Zm-7.038-10.288a1.288,1.288,0,0,0-1.287,1.287v7.041a1.288,1.288,0,0,0,1.287,1.287h7.038a1.288,1.288,0,0,0,1.287-1.287V359.47a1.288,1.288,0,0,0-1.287-1.287Z" transform="translate(-800.01 -357.51)"/><path class="w" d="M2.5,58.285.625,56.409,0,57.034l2.5,2.5,5.36-5.36-.625-.625Z" transform="translate(1.274 -50.864)"/></g></g><g transform="translate(41.438 99.093)"><path class="w" d="M912.575,449.071H857.6a.985.985,0,0,1-.985-.986h0a.985.985,0,0,1,.985-.986h54.979a.985.985,0,0,1,.986.986h0A.987.987,0,0,1,912.575,449.071Z" transform="translate(-843.805 -446.54)"/><path class="w" d="M905.208,467.561H857.6a.985.985,0,0,1-.985-.986h0a.985.985,0,0,1,.985-.986h47.612a.985.985,0,0,1,.986.986h0A.988.988,0,0,1,905.208,467.561Z" transform="translate(-843.805 -460.87)"/><path class="w" d="M884.092,486.041H857.586a.985.985,0,0,1-.986-.986h0a.985.985,0,0,1,.986-.986h26.506a.985.985,0,0,1,.986.986h0A.984.984,0,0,1,884.092,486.041Z" transform="translate(-843.797 -475.192)"/><g transform="translate(0 0)"><path class="w" d="M809.008,456.58H801.97a1.961,1.961,0,0,1-1.96-1.96V447.58a1.963,1.963,0,0,1,1.96-1.96h7.038a1.961,1.961,0,0,1,1.96,1.96v7.041A1.963,1.963,0,0,1,809.008,456.58Zm-7.038-10.288a1.288,1.288,0,0,0-1.287,1.287v7.041a1.288,1.288,0,0,0,1.287,1.287h7.038a1.288,1.288,0,0,0,1.287-1.287V447.58a1.288,1.288,0,0,0-1.287-1.287Z" transform="translate(-800.01 -445.62)"/><path class="w" d="M2.5,58.285.625,56.409,0,57.034l2.5,2.5,5.36-5.36-.625-.625Z" transform="translate(1.343 -50.864)"/></g></g><g transform="translate(41.438 119.236)"><path class="w" d="M912.575,537.191H857.6a.985.985,0,0,1-.985-.986h0a.985.985,0,0,1,.985-.986h54.979a.985.985,0,0,1,.986.986h0A.987.987,0,0,1,912.575,537.191Z" transform="translate(-843.805 -534.975)"/><path class="w" d="M905.208,555.671H857.6a.985.985,0,0,1-.985-.986h0a.985.985,0,0,1,.985-.986h47.612a.985.985,0,0,1,.986.986h0A.988.988,0,0,1,905.208,555.671Z" transform="translate(-843.805 -549.297)"/><path class="w" d="M884.092,574.161H857.586a.985.985,0,0,1-.986-.986h0a.985.985,0,0,1,.986-.986h26.506a.985.985,0,0,1,.986.986h0A.985.985,0,0,1,884.092,574.161Z" transform="translate(-843.797 -563.626)"/><g transform="translate(0 0)"><path class="w" d="M809.008,544.7H801.97a1.961,1.961,0,0,1-1.96-1.96V535.7a1.963,1.963,0,0,1,1.96-1.96h7.038a1.961,1.961,0,0,1,1.96,1.96v7.038A1.963,1.963,0,0,1,809.008,544.7ZM801.97,534.41a1.288,1.288,0,0,0-1.287,1.287v7.038a1.288,1.288,0,0,0,1.287,1.287h7.038a1.288,1.288,0,0,0,1.287-1.287V535.7a1.288,1.288,0,0,0-1.287-1.287Z" transform="translate(-800.01 -533.74)"/><path class="w" d="M2.5,58.285.625,56.409,0,57.034l2.5,2.5,5.36-5.36-.625-.625Z" transform="translate(1.343 -50.864)"/></g></g><g transform="translate(0 52.323)"><g transform="translate(3.913 2.054)"><path class="x" d="M832.57,245.88l1.143,5.45,2.439-2.036-.531-2.529Z" transform="translate(-787.649 -245.88)"/><path class="g" d="M847.615,250.24l-1.485-.43.531,2.529,1.186-.99A.641.641,0,0,0,847.615,250.24Z" transform="translate(-798.158 -248.926)"/><path class="y" d="M677.851,245.88l-44.921,9.529.571,2.725,44.921-9.529Z" transform="translate(-632.93 -245.88)"/><path class="z" d="M635.47,267.519l.572,2.725,44.921-9.529-.572-2.725Z" transform="translate(-634.898 -255.265)"/></g><path class="aa" d="M794.489,267.1a.588.588,0,0,1-.1.326,1.181,1.181,0,0,1-.326.306,2.636,2.636,0,0,1-.333.2,2.447,2.447,0,0,1-1.08.819c-.477.207-.99.322-1.478.493a1.352,1.352,0,0,0-.427.221q-1.266,2.278-2.529,4.559a4.262,4.262,0,0,0-2.5-1.6c.745-1.026,1.454-2.075,2.1-3.166a27.018,27.018,0,0,1,1.582-2.567,5.851,5.851,0,0,1,2.27-1.935.393.393,0,0,1,.356-.025c.18.119.061.4-.07.567-.333.432-.673.864-1.006,1.3,2.1.376,3.8-.513,3.879-.045a.47.47,0,0,1-.115.376A1.352,1.352,0,0,1,794.489,267.1Z" transform="translate(-747.428 -258.403)"/><path class="ab" d="M765.551,537.655H759.17c.025-1.055.056-2.327.081-3.418.779-.07,1.562-.139,2.338-.207a1.9,1.9,0,0,0,.553,1.186,4.066,4.066,0,0,0,1.382.869c.5.212,1.024.387,1.5.648a1.294,1.294,0,0,1,.461.367A.529.529,0,0,1,765.551,537.655Z" transform="translate(-726.852 -467.139)"/><path class="n" d="M717.476,308.679q-5.029.007-10.056.009a51.349,51.349,0,0,0,.619-6.377c.049-1.519.032-3.047-.054-4.572a2.378,2.378,0,0,0,.4-.583c.484-1.015.212-2.315.855-3.24.317-.457.828-.763,1.087-1.256a3.247,3.247,0,0,0,.18-1.8c.592-.049,1.186-.081,1.78-.106v.032a7.657,7.657,0,0,1,.909,0,8.081,8.081,0,0,1,3.607,1.051c1.035.592,1.919,1.4,2.9,2.077a21.388,21.388,0,0,0,3.056,1.694c.779-.981,1.548-1.976,2.282-2.99a4.241,4.241,0,0,1,2.5,1.6q-1.124,2.035-2.257,4.066a2.529,2.529,0,0,1-4,1.368l-3.854-1.7c-.572-.252-1.145-.506-1.715-.754a12.521,12.521,0,0,0,1.582,1.8c-.09.5-.225,1.109-.407,1.859-.484,2,.1,5.508.628,7.83A.047.047,0,0,1,717.476,308.679Z" transform="translate(-686.746 -278.6)"/><path class="ac" d="M744.25,319.38c.572.247,1.145.5,1.715.754a8.569,8.569,0,0,1-.135,1.044A12.787,12.787,0,0,1,744.25,319.38Z" transform="translate(-715.289 -300.788)"/><path class="ab" d="M718.021,538.7H711.64c.025-1.022.054-2.25.076-3.321.8,0,1.6,0,2.4.009a1.991,1.991,0,0,0,.506.873,4.089,4.089,0,0,0,1.377.869,15.654,15.654,0,0,1,1.5.648,1.293,1.293,0,0,1,.461.367A.538.538,0,0,1,718.021,538.7Z" transform="translate(-690.016 -468.186)"/><path class="aa" d="M721.4,250.456a.989.989,0,0,1,.684-.783.792.792,0,0,1,.851.333,3.629,3.629,0,0,0,.421-1.622,1.165,1.165,0,0,1,.664-1.271,2.818,2.818,0,0,0,.88-1.242,1.167,1.167,0,0,1,.095.09,2.912,2.912,0,0,1,.909,1.528c.081.367.081.754.151,1.125a1.629,1.629,0,0,0,.5.99c.155.126.358.241.383.437.02.18-.126.331-.232.477a2.863,2.863,0,0,0-.378,1.418,3.867,3.867,0,0,1-.252,1.15,1.547,1.547,0,0,1-.8.828c-.4.146-.873.077-1.256.221a.965.965,0,0,0-.056.146,4.647,4.647,0,0,0-.221,1.719,7.655,7.655,0,0,0-.909,0v-.032c-.594.025-1.19.056-1.78.106-.011-.142-.02-.286-.025-.423a4.891,4.891,0,0,1,1.553-3.67,1.256,1.256,0,0,1-.9-.5A1.326,1.326,0,0,1,721.4,250.456Z" transform="translate(-697.288 -243.819)"/><path class="ad" d="M722.564,418.089c-.011.9-.029,1.818-.045,2.75a56.353,56.353,0,0,1-2.489-8.368Q721.383,415.241,722.564,418.089Z" transform="translate(-696.519 -372.932)"/><path class="ab" d="M688.2,249.009a3.227,3.227,0,0,1-.18,1.8c-.261.493-.77.8-1.087,1.256-.644.925-.371,2.225-.855,3.24a2.376,2.376,0,0,1-.4.583,4.153,4.153,0,0,1-1.708,1.08c-.07.029-.14.054-.207.077a5.393,5.393,0,0,1-2.75.261c-.086-.02-.167-.036-.248-.061a2.863,2.863,0,0,1-2.077-2.03c-.331-1.564.99-3,1.166-4.592.094-.83-.14-1.667-.09-2.5a3.843,3.843,0,0,1,1.564-2.844c.758-.547,1.735-.824,2.315-1.557a6.716,6.716,0,0,0,1.226-3.15,4.642,4.642,0,0,1,2.941-3.537c1.247-.5,4.7-.578,4.331,1.859a1.155,1.155,0,0,0-.094-.09,2.818,2.818,0,0,1-.88,1.242,1.8,1.8,0,0,0-.567.553,1.743,1.743,0,0,0-.1.718,3.6,3.6,0,0,1-.421,1.622.788.788,0,0,0-.85-.333.983.983,0,0,0-.684.783,1.32,1.32,0,0,0,.281,1.026,1.263,1.263,0,0,0,.9.5,4.894,4.894,0,0,0-1.553,3.67C688.184,248.725,688.193,248.867,688.2,249.009Z" transform="translate(-664.446 -236.753)"/><path class="ae" d="M710.714,388.252a184.521,184.521,0,0,1-1.06,19.3h-.844c-.8,0-1.6-.009-2.4-.009-.207,0-.412,0-.619,0,1.132-11.311-1.226-22.724-.979-34.087q.331-1.5.572-3.02,5.022,0,10.056-.009,2.855,18.3,4.554,36.765c-.182.016-.362.032-.547.05-.779.07-1.562.139-2.338.207-.081,0-.16.011-.241.02a94.983,94.983,0,0,0-6.116-21.961q-1.175-2.849-2.534-5.619A56.579,56.579,0,0,0,710.714,388.252Z" transform="translate(-684.714 -340.343)"/><path class="ac" d="M704.066,321.81c.085,1.523.1,3.051.054,4.572q-.861.182-1.735.3.061-1.893-.025-3.789A4.185,4.185,0,0,0,704.066,321.81Z" transform="translate(-682.825 -302.671)"/><path class="n" d="M688.85,326.61q.084,1.893.025,3.789-.888.121-1.784.18a2.135,2.135,0,0,1-1.96-.6c-.437-.644-.077-1.512.292-2.2.155-.281.311-.558.468-.835a5.393,5.393,0,0,0,2.75-.261Z" transform="translate(-669.316 -306.391)"/><path class="x" d="M619.862,287.87l-3.2.554-1.12,3.049,2.079,2.5,3.2-.553,1.12-3.049Z" transform="translate(-615.54 -276.368)"/></g><path class="g" d="M623.7,297.944a1.224,1.224,0,1,0,1.224-1.224A1.224,1.224,0,0,0,623.7,297.944Z" transform="translate(-621.864 -230.904)"/><rect class="u" width="11.462" height="1.316" transform="translate(32.433 122.838)"/></g><g transform="translate(259.292 69.679)"><path class="o" d="M1194.04,400.9s-42.887-8.622-41.677-78.239a1.84,1.84,0,0,1,1.811-1.807c5.97-.106,25.721-1.2,38.756-10.819a1.857,1.857,0,0,1,2.216,0c13.03,9.718,32.786,10.81,38.758,10.911a1.84,1.84,0,0,1,1.811,1.807C1236.932,393.1,1194.04,400.9,1194.04,400.9Z" transform="translate(-1152.338 -309.669)"/><path class="af" d="M1310.055,359.261a1.84,1.84,0,0,0-1.812-1.807,93.793,93.793,0,0,1-9.563-.684,108.135,108.135,0,0,1-15.692,45.866c-8.962,14.6-22.481,20.674-34.728,22.92,10.177,9.846,20.121,11.847,20.121,11.847S1311.27,429.6,1310.055,359.261Z" transform="translate(-1226.677 -346.172)"/><g transform="translate(19.707 23.619)"><g transform="translate(0 14.379)"><rect class="f" width="43.992" height="15.231"/></g><g transform="translate(14.38 0)"><rect class="f" width="43.992" height="15.231" transform="translate(15.231) rotate(90)"/></g></g></g><g transform="translate(227.722 116.603)"><path class="ab" d="M1066.476,523.206a1.917,1.917,0,0,0,.036.88,2.912,2.912,0,0,1-.243,1.616.058.058,0,0,0-.007.018,7,7,0,0,1-.9-.925,2.463,2.463,0,0,1-.526-1.267,3.608,3.608,0,0,1,.214-1.3,8.1,8.1,0,0,1,.814-2.018,4.25,4.25,0,0,1,6.971-.338l.034-.025a3.222,3.222,0,0,1,.641,5.445s0-.007,0-.007l-.058-.007a.98.98,0,0,1-.461-.68,2.694,2.694,0,0,0-.261-.808,3.975,3.975,0,0,0-.4-.45,3.026,3.026,0,0,1-.554-1.764l-.034,0a5.947,5.947,0,0,1-4.772,1.757,4.721,4.721,0,0,0,1.069-1.361l-.149-.076C1067.608,522.486,1066.688,522.583,1066.476,523.206Z" transform="translate(-1052.952 -518.211)"/><path class="ag" d="M1068.339,552.247a8.506,8.506,0,0,0,.146,1.031l-.065.013a1.3,1.3,0,0,1-.819-.538,1.331,1.331,0,0,1-.2-.961.789.789,0,0,1,.295-.518.445.445,0,0,1,.536.013.053.053,0,0,1,.018.014C1068.278,551.617,1068.307,551.934,1068.339,552.247Z" transform="translate(-1054.924 -543.771)"/><path class="ah" d="M1044.378,702.691c0,.538.007,1.08.011,1.618q-.8-.229-1.579-.531a14.062,14.062,0,0,0,.043-1.658C1043.352,702.325,1043.861,702.518,1044.378,702.691Z" transform="translate(-1035.885 -660.738)"/><path class="ab" d="M1018.965,697.348c-.029.4-.077.8-.137,1.2q-2.71.115-5.423.014a1.076,1.076,0,0,1-1.339-1.175,7.157,7.157,0,0,1,.1-2,2.888,2.888,0,0,1,.886-1.571A20.023,20.023,0,0,0,1018.965,697.348Z" transform="translate(-1012.041 -654.306)"/><path class="ab" d="M1022.488,693.721a14.049,14.049,0,0,1-.043,1.658,20.013,20.013,0,0,1-5.916-3.528,1.026,1.026,0,0,1,.131-.11,2.574,2.574,0,0,1,1.391-.461,16.571,16.571,0,0,0,1.609,1.049A23.909,23.909,0,0,0,1022.488,693.721Z" transform="translate(-1015.518 -652.338)"/><path class="ai" d="M1049.78,704.66a37.92,37.92,0,0,0,7.828,1.721c-1.865.225-3.744.353-5.585.412a20.075,20.075,0,0,1-2.234-.513C1049.787,705.742,1049.78,705.2,1049.78,704.66Z" transform="translate(-1041.287 -662.707)"/><path class="aj" d="M1036.207,666.783q-.02,2.167-.036,4.336v.1h-.081a71.435,71.435,0,0,1-7.734-.461,37.93,37.93,0,0,1-7.828-1.721q-.776-.263-1.523-.572a23.931,23.931,0,0,1-2.831-1.393,16.7,16.7,0,0,1-1.609-1.049,8.064,8.064,0,0,1-1.127-1,4.943,4.943,0,0,1-1.4-3.056,3.177,3.177,0,0,1,1.481-2.9,3.885,3.885,0,0,1,2.873-.194,11.126,11.126,0,0,1,1.22.383c1,.364,1.976.774,2.943,1.208,2.041.914,4.039,1.928,6.077,2.844q.847.381,1.724.754a45.8,45.8,0,0,0,7.851,2.572Z" transform="translate(-1012.035 -627.08)"/><path class="ak" d="M1123.411,615.758a4.9,4.9,0,0,1-.185,3.42c-.454-.925-.938-1.892-1.3-2.678.432-.346.9-.688,1.382-1.01A2.746,2.746,0,0,1,1123.411,615.758Z" transform="translate(-1097.202 -593.601)"/><path class="ab" d="M1130.542,691.241a2.586,2.586,0,0,1,1.391.461,2.856,2.856,0,0,1,1.019,1.681,7.238,7.238,0,0,1,.1,2,1.077,1.077,0,0,1-1.343,1.175c-1.807.07-3.616.061-5.421-.014a15.559,15.559,0,0,1-.072-4.372,5.148,5.148,0,0,0,.826-.157c.821-.218,1.611-.554,2.448-.707A3.913,3.913,0,0,1,1130.542,691.241Z" transform="translate(-1100.43 -652.298)"/><path class="ag" d="M1119.021,699.085v-.1q.017-2.167.036-4.336a3.258,3.258,0,0,0,1.611.166,15.555,15.555,0,0,0,.072,4.372q-.9-.034-1.8-.094v-.011C1118.969,699.085,1118.994,699.085,1119.021,699.085Z" transform="translate(-1094.885 -654.949)"/><path class="al" d="M1071.173,551.591s0,.007,0,.013a.035.035,0,0,0-.018-.013.029.029,0,0,0,.007-.011A.033.033,0,0,0,1071.173,551.591Z" transform="translate(-1057.856 -544.072)"/><path class="ag" d="M1024.173,614.445l.076.034c0,.007-.007.018-.011.025a2.3,2.3,0,0,0-.254.938l1.438,1.807v4.37c-.968-.432-1.946-.844-2.943-1.208a11.48,11.48,0,0,0-1.22-.383c-.383-.346-.756-.7-1.125-1.057a4.8,4.8,0,0,1-1.818-3.308c.043-1.634,2.111-4.685,2.111-4.685h0c.376-.792.767-1.611,1.174-2.408a20.258,20.258,0,0,1,2.844,1.609c-.04.083-.077.167-.108.252A6.07,6.07,0,0,0,1024.173,614.445Z" transform="translate(-1016.902 -588.238)"/><path class="ac" d="M1119.05,609.129c.047-1.287.1-2.572.146-3.859a4.815,4.815,0,0,1,1.883,2.3c-.484.324-.949.666-1.382,1.01C1119.473,608.762,1119.259,608.944,1119.05,609.129Z" transform="translate(-1094.97 -585.681)"/><path class="ag" d="M1102.85,550.565a.512.512,0,0,1,.389.346,1.11,1.11,0,0,1,.036.542,1.761,1.761,0,0,1-.36.862,1.156,1.156,0,0,1-.765.43,8.687,8.687,0,0,0,.137-.986c.034-.308.061-.619.09-.925l.061.007A.366.366,0,0,1,1102.85,550.565Z" transform="translate(-1081.873 -543.282)"/><path class="al" d="M1071.2,551.529a.03.03,0,0,1-.007-.011.058.058,0,0,0,.007-.018Z" transform="translate(-1057.879 -544.01)"/><path class="ag" d="M1072.831,541.411a4.6,4.6,0,0,1-.934-1.031,2.906,2.906,0,0,1-.432-1.1,8.372,8.372,0,0,1-.146-1.031c-.034-.313-.061-.63-.094-.943,0-.007,0-.011,0-.014v-.029a2.908,2.908,0,0,0,.243-1.616,1.917,1.917,0,0,1-.036-.88c.211-.621,1.132-.72,1.42-1.31l.149.077a4.763,4.763,0,0,1-1.069,1.361,5.945,5.945,0,0,0,4.773-1.757l.034,0a3.026,3.026,0,0,0,.554,1.764,4.145,4.145,0,0,1,.4.45,2.7,2.7,0,0,1,.261.808.986.986,0,0,0,.461.68l.059.007a.008.008,0,0,1,0,.007c-.014.158-.029.313-.047.473-.029.306-.059.614-.09.925a9.68,9.68,0,0,1-.137.985,3.061,3.061,0,0,1-.443,1.139,4.573,4.573,0,0,1-1.175,1.211,3.073,3.073,0,0,1-3.735-.176Z" transform="translate(-1057.902 -529.781)"/><path class="am" d="M1051.018,638.09h15.292a.426.426,0,0,1,.383.466l-.047,1.656-.106,3.834c-2.405,1.019-4.732,2.223-7.115,3.3q-.847.381-1.724.754c-.585-.247-1.161-.5-1.724-.754-2.041-.916-4.039-1.931-6.078-2.844v-5.956a.415.415,0,0,1,.378-.45h.74Z" transform="translate(-1041.38 -611.116)"/><path class="ag" d="M1128.764,610.962h0s2.066,3.051,2.111,4.685a4.821,4.821,0,0,1-1.818,3.308c-.306.3-.619.6-.938.887a8.05,8.05,0,0,0-2.349.554c-.641.236-1.274.488-1.9.756l.106-3.834,1.638-1.656c-.232-.536-.549-1.186-.88-1.863a4.872,4.872,0,0,0,.185-3.42c-.029-.09-.061-.182-.1-.27a20.916,20.916,0,0,1,2.772-1.557C1128,609.351,1128.388,610.17,1128.764,610.962Z" transform="translate(-1098.706 -588.223)"/><path class="ah" d="M1078.225,569.9a3.125,3.125,0,0,0,1.987.731,3.062,3.062,0,0,0,1.746-.549c.041.4.088.808.142,1.211h0c-.45.907-1.026,1.571-2.034,1.532a2.09,2.09,0,0,1-1.881-1.557v-.088C1078.2,570.755,1078.209,570.325,1078.225,569.9Z" transform="translate(-1063.297 -558.269)"/><path class="ak" d="M1045.138,616.758c-.59,1.361-1.033,1.895-1.627,3.245l-.077-.034a6.092,6.092,0,0,1,.167-4.017c.034-.083.07-.167.108-.252C1044.216,616.042,1044.695,616.393,1045.138,616.758Z" transform="translate(-1036.166 -593.764)"/><path class="ac" d="M1047.386,605.53c.047,1.267.094,2.536.142,3.8-.171-.157-.349-.306-.531-.454-.443-.365-.925-.716-1.427-1.055A6.11,6.11,0,0,1,1047.386,605.53Z" transform="translate(-1038.024 -585.882)"/><path class="n" d="M1036.612,577.655c1.7-1.375,4.331-1.764,6.507-2.075v.088a2.09,2.09,0,0,0,1.881,1.557c1.008.04,1.582-.625,2.034-1.532h0c2.189.308,4.685.571,6.406,1.96A17.093,17.093,0,0,1,1057.12,583a21.072,21.072,0,0,0-2.772,1.557,4.841,4.841,0,0,0-1.883-2.3c-.047,1.287-.1,2.572-.146,3.859-.043,1.175-.09,2.349-.135,3.526h-14.306c-.043-1.175-.09-2.349-.135-3.526-.047-1.267-.094-2.536-.142-3.8a6.1,6.1,0,0,0-1.816,2.293A20.473,20.473,0,0,0,1032.94,583,17.137,17.137,0,0,1,1036.612,577.655Z" transform="translate(-1028.236 -562.671)"/><path class="ag" d="M1042.337,709.5c-.029.4-.077.8-.137,1.2.571-.02,1.145-.052,1.717-.09v-.578C1043.386,709.878,1042.857,709.7,1042.337,709.5Z" transform="translate(-1035.413 -666.458)"/><path class="aj" d="M1049.83,711.86v.578l.083,0v-.011c.709-.007,1.427-.023,2.149-.052A19.527,19.527,0,0,1,1049.83,711.86Z" transform="translate(-1041.326 -668.287)"/><path class="aj" d="M1100.073,664.288a4.57,4.57,0,0,0,.815-2.311,2.951,2.951,0,0,0-3.227-3.267,8.05,8.05,0,0,0-2.349.553c-.641.236-1.274.488-1.9.756-2.405,1.019-4.732,2.223-7.115,3.3q-.847.381-1.724.754c.846.353,1.712.7,2.6,1.017A63.89,63.89,0,0,0,1100.073,664.288Z" transform="translate(-1068.249 -627.092)"/><path class="ai" d="M1096.11,684.311a40.309,40.309,0,0,0,5.254,1.555v.153a3.257,3.257,0,0,0,1.611.167,5.132,5.132,0,0,0,.826-.158c.821-.218,1.611-.553,2.448-.706a3.938,3.938,0,0,1,1.055-.065,8.359,8.359,0,0,0,1.127-1,6.042,6.042,0,0,0,.585-.745A63.729,63.729,0,0,1,1096.11,684.311Z" transform="translate(-1077.192 -646.316)"/><circle class="f" cx="1.49" cy="1.49" r="1.49" transform="translate(14.832 30.12)"/></g><g transform="translate(334.639 79.872)"><path class="ab" d="M1557.293,379.348a1.34,1.34,0,0,1,.842-2.432.831.831,0,0,1,.614-.846,1.437,1.437,0,0,1,1.226.131,4.419,4.419,0,0,1,.842.837,3.849,3.849,0,0,0,1.217.868l0,.013a4.1,4.1,0,0,1,1.76,1.154,3.335,3.335,0,0,1,.466,2.95,7.792,7.792,0,0,1-1.51,2.678c-.166.212-.344.43-.5.655a16.815,16.815,0,0,1-1.154-1.854,1.676,1.676,0,0,0,.207-.04,1.226,1.226,0,0,0,.734-.493,1.011,1.011,0,0,0-1.62-1.2c-.027.176-.05.358-.077.533a2.1,2.1,0,0,1-1.3-1.375,5.739,5.739,0,0,1-.232-1.863,4.6,4.6,0,0,1-.972-.452A4.262,4.262,0,0,0,1557.293,379.348Z" transform="translate(-1541.085 -371.259)"/><path class="ag" d="M1553.018,392.587a.935.935,0,0,1-.367.045.455.455,0,0,1-.407-.313c-.049-.241.158-.443.308-.632a3.511,3.511,0,0,0,.524-1.406,7.112,7.112,0,0,1,.734-1.908,4.168,4.168,0,0,1,.538-.743,4.653,4.653,0,0,0,.972.452,5.684,5.684,0,0,0,.232,1.863,2.1,2.1,0,0,0,1.3,1.375c.027-.176.049-.358.077-.533a1.011,1.011,0,0,1,1.62,1.2,1.21,1.21,0,0,1-.734.493,1.666,1.666,0,0,1-.207.04,16.761,16.761,0,0,0,1.154,1.854,2.755,2.755,0,0,0-.578,1.375c.072.335.148.666.241.995a11.755,11.755,0,0,0-3.456.756c-.045-.488-.076-.981-.09-1.469a1.016,1.016,0,0,1-.117,0,1.832,1.832,0,0,1-1.566-.783,2.288,2.288,0,0,1-.212-1.357A6.1,6.1,0,0,0,1553.018,392.587Z" transform="translate(-1537.602 -380.281)"/><path class="aj" d="M1651.725,660.49c.819.295,1.643.587,2.462.882q-1.1,2.224-2.356,4.365A8.321,8.321,0,0,1,1651.725,660.49Z" transform="translate(-1614.415 -591.744)"/><path class="ab" d="M1501.573,693.467a.016.016,0,0,0,0-.013q.189-.928.371-1.863h3.13c-.461,1.478-1.388,4.07-1.89,5.292h-5.709a1.8,1.8,0,0,1,1.04-1.271c.52-.272,1.1-.421,1.593-.729S1501.418,694.2,1501.573,693.467Z" transform="translate(-1495.166 -615.846)"/><path class="an" d="M1570.129,552.47s1.325,6.766-.774,11.5q-.4-1.418-.81-2.84h0C1569.091,558.428,1569.611,555.577,1570.129,552.47Z" transform="translate(-1550.237 -508.03)"/><path class="ab" d="M1642.943,645.223c-.972-.353-1.948-.7-2.923-1.049l2.243-3.384a22.547,22.547,0,0,0,4.563,2.257q-.679,1.546-1.424,3.058C1644.585,645.81,1643.762,645.518,1642.943,645.223Z" transform="translate(-1605.633 -576.477)"/><path class="ao" d="M1520.47,563.8h-3.13q3.679-18.5,6.8-37.1c3.6,0,7.2.153,10.789.439a.875.875,0,0,0,.108-.122c1.535,6.532.277,11.224,2.27,19.185,3.686,1.4,7.315,2.977,10.861,4.7-.326.488-.65.981-.977,1.469l-2.243,3.384-8.359-3a7.949,7.949,0,0,1-6.379-6.894q-.263-.928-.533-1.863c2.1-4.732.774-11.5.774-11.5-.515,3.107-1.035,5.958-1.589,8.658-1.571,7.767-3.366,14.358-5.875,22.645h-2.518Z" transform="translate(-1510.557 -488.058)"/><path class="ag" d="M1505.5,359.939a1.784,1.784,0,0,1,.016.243,8.01,8.01,0,0,1-2.016.828.469.469,0,0,1-.061.016c-.07-.635-.662-1.055-1.121-1.508a4.3,4.3,0,0,1-1.24-2.687.581.581,0,0,1,.727.131,3.111,3.111,0,0,1,.418.684.907.907,0,0,0,.592.5q-.537-1.448-1.078-2.9a1.015,1.015,0,0,1,1.089-.216,2.313,2.313,0,0,1,.932.709A7.041,7.041,0,0,1,1505.5,359.939Z" transform="translate(-1497.956 -354.968)"/><path class="al" d="M1520.71,376.21c.036.077.068.157.1.236a.773.773,0,0,1-.081.05A1.985,1.985,0,0,0,1520.71,376.21Z" transform="translate(-1513.169 -371.43)"/><path class="n" d="M1512.622,377.31a.8.8,0,0,0,.081-.049q1.846,4.418,3.686,8.838a35.779,35.779,0,0,0,5.628,4.07c-.873.637-1.492,1.294-2.457,1.917a8.638,8.638,0,0,0-1.177.869,3.725,3.725,0,0,0-.842.819,13.633,13.633,0,0,1-4.957-6.433,61.717,61.717,0,0,1-2.333-9.061A9.185,9.185,0,0,0,1512.622,377.31Z" transform="translate(-1505.063 -372.244)"/><path class="al" d="M1500.124,530.8l.013.013c-.009,0-.018,0-.027.009A.1.1,0,0,1,1500.124,530.8Z" transform="translate(-1497.205 -491.236)"/><path class="ag" d="M1491.835,532.86a6.272,6.272,0,0,1-2.417,2.763,2.445,2.445,0,0,1-1.008.5,1.072,1.072,0,0,1-1.026-.335,1.126,1.126,0,0,1-.041-1.181,3.806,3.806,0,0,1,.783-.959,2.638,2.638,0,0,0,.7-1.012c-.212.171-.421.344-.628.511-.086.072-.194.144-.3.1-.153-.068-.095-.3,0-.448a5.341,5.341,0,0,1,2.207-1.935c.009,0,.018,0,.027-.009q.888.955,1.859,1.823c-.049.059-.1.113-.153.171v.007Z" transform="translate(-1487.197 -491.282)"/><path class="ap" d="M1546.568,477.29a17.326,17.326,0,0,1-2.878,7.02c.018-.7.036-1.393.054-2.09A35.967,35.967,0,0,0,1546.568,477.29Z" transform="translate(-1530.978 -449.766)"/><path class="n" d="M1510.59,432.394a8.638,8.638,0,0,1,1.177-.869c.963-.623,1.584-1.28,2.457-1.917.139-.1.29-.2.448-.308-.018-.131-.031-.263-.041-.394a11.754,11.754,0,0,1,3.456-.756c.086.331.176.661.281.981a5.359,5.359,0,0,1,2.8,4.809c-.063,3.116.693,5.038,1.262,8.1a19.651,19.651,0,0,1,.506,4.352c-.054,1.406-.241,3.2-1.19,4.248a.861.861,0,0,1-.108.121c-3.587-.286-7.191-.434-10.789-.439h-.1a2.333,2.333,0,0,1-.815-2.2c.018-.632.031-1.267.05-1.9a17.36,17.36,0,0,0,2.878-7.02,36.192,36.192,0,0,1-2.822,4.93c-.56.824-1.127,1.575-1.674,2.234-2.2,2.646-4.181,4.388-6.3,6.712h0q-.969-.867-1.858-1.823l-.014-.014c2.347-3.686,3.976-5.038,5.862-8.458l.045.014c.954-2.995,2.343-6.789,2.709-7.79a6.811,6.811,0,0,1,.945-1.8A3.665,3.665,0,0,1,1510.59,432.394Z" transform="translate(-1497.266 -411.683)"/></g><g transform="translate(47.968 84.52)"><path class="ab" d="M289.292,701.833a3.088,3.088,0,0,1,.02.661H287.49c.077-1.175.092-2.356.054-3.535,1.346.02,2.693.043,4.039.061a2.722,2.722,0,0,0,1.44,1.1c.668.25,1.386.356,2.052.614a2.242,2.242,0,0,1,.992.661,1.136,1.136,0,0,1,.214,1.049c-1.019.07-2.851.115-3.582.139a7.08,7.08,0,0,1-1.838-.115A6.807,6.807,0,0,1,289.292,701.833Z" transform="translate(-270.767 -626.206)"/><path class="ae" d="M256.127,547.262c-1.346-.02-2.693-.043-4.039-.061-.043,0-.083,0-.126,0-1.195-8.773-2.144-19.2-2.849-28.441q-1.775,14.176-3.179,28.4H241.74l0-.279.491-35.986h0q.294-3.5.59-7l6.57,3.535,5.974-3.375.2-.8c.259-.034.524-.074.792-.11.018,2.54-.029,5.094-.09,7.752h0q.5,18.2,1,36.391C256.883,547.274,256.505,547.269,256.127,547.262Z" transform="translate(-235.311 -474.448)"/><path class="ag" d="M274.882,395.069a1.661,1.661,0,0,1,.218-.162,5.115,5.115,0,0,0,.936-.551,1.806,1.806,0,0,0,.437-.745,6.891,6.891,0,0,0,1.735-.3,2.63,2.63,0,0,0,1.283-.749,4.264,4.264,0,0,1,.016.509h.007a7.313,7.313,0,0,0,.6,3.042c.124.248.266.542.131.785a.532.532,0,0,1-.371.241,1.454,1.454,0,0,1-.407,0,3.144,3.144,0,0,1-.171,1.091,2.123,2.123,0,0,1-.9,1.361,2.421,2.421,0,0,1-1.251.283,5.005,5.005,0,0,1-1.035-.112l-.011,0c-.009.058-.011.117-.018.178-.007.1-.011.2-.02.3a4.3,4.3,0,0,1-3.427-.72q.118-.7.232-1.391l.011,0c.07-.367,1.1-.738,1.341-1.627a1.316,1.316,0,0,1-.862-1.955.85.85,0,0,1,.461-.4.775.775,0,0,1,.763.234A1.255,1.255,0,0,1,274.882,395.069Z" transform="translate(-259.251 -388.749)"/><path class="ac" d="M283.818,436.721c.189-2.261.457-4.836.8-6.6l.02-.036c.326.189.657.374.988.556q.2,1.4.331,2.822l-.873.65q.321.722.637,1.445-.719,2.477-1.238,5.011l-.909-.488C283.626,439.207,283.71,438.017,283.818,436.721Z" transform="translate(-267.729 -417.835)"/><path class="ab" d="M276.755,431.182c.225,1.69.45,3.384.675,5.072l.025,0c-.108,1.294-.191,2.486-.248,3.362l-1.332-.718c-.171-1.181-.344-2.367-.515-3.548q.307-2.079.612-4.16a4.848,4.848,0,0,1-.328-.612c.286-.351.554-.713.808-1.089a13.408,13.408,0,0,1,.758,1.271C277.057,430.905,276.908,431.043,276.755,431.182Z" transform="translate(-261.366 -417.37)"/><path class="aq" d="M82.033,172.386s3.443-.251,6.881-.2a54.231,54.231,0,0,1,7.025.659l.191-6.459-13.544-.956Z" transform="translate(-74.921 -138.878)"/><path class="ac" d="M265.766,434.925c.171,1.181.344,2.367.515,3.548l-2.131-1.145q-.5-1.708-.833-3.454c.191-.367.383-.729.576-1.1a7.181,7.181,0,0,0-.914-.72c.2-.882.4-1.764.6-2.648l1.316-.47c.007.054.016.11.025.164Q265.343,432.017,265.766,434.925Z" transform="translate(-251.772 -416.944)"/><path class="f" d="M271.832,423.48a4.3,4.3,0,0,0,3.427.72c-.016.23-.029.454-.047.684l.144.083-.02.036c-.34,1.76-.608,4.334-.8,6.6l-.025,0c-.225-1.688-.45-3.382-.675-5.072.153-.139.3-.277.454-.421a13.419,13.419,0,0,0-.758-1.271c-.257.376-.524.738-.808,1.089a5.5,5.5,0,0,0,.329.612q-.307,2.079-.612,4.16-.419-2.913-.844-5.821c.009-.061.02-.124.029-.184C271.7,424.286,271.767,423.883,271.832,423.48Z" transform="translate(-258.452 -412.712)"/><path class="aq" d="M224.715,435.494q.334,1.748.833,3.454l-3.089-1.663-1.181,3.728-.153.475-1.181,3.724a24.692,24.692,0,0,1-4.1.972c-.875.13-1.865.189-2.417-.727a1.848,1.848,0,0,1-.257-.988,4.65,4.65,0,0,1,1.139-2.6c1.661-2.324,4.408-6.249,5.776-8.2A4.523,4.523,0,0,1,222.273,432l2.7-.968q-.3,1.326-.6,2.648a7.022,7.022,0,0,1,.914.72C225.1,434.765,224.906,435.127,224.715,435.494Z" transform="translate(-213.169 -418.563)"/><g transform="translate(6.726 15.108)"><path class="k" d="M15.226,13.748a.536.536,0,0,1-.536.536H.536A.537.537,0,0,1,0,13.748V.553A.536.536,0,0,1,.536.017H14.69a.536.536,0,0,1,.536.536Z" transform="translate(0 -0.017)"/><path class="l" d="M303.885.017a.528.528,0,0,1,.528.528v13.74h.555a.536.536,0,0,0,.536-.536V.553a.536.536,0,0,0-.536-.536h-1.082Z" transform="translate(-290.277 -0.017)"/><path class="f" d="M144.242,2.522h-1.876a.314.314,0,0,1-.314-.314V.017h2.5v2.19A.314.314,0,0,1,144.242,2.522Z" transform="translate(-135.691 -0.017)"/><path class="m" d="M170.887.017v2.19a.314.314,0,0,1-.314.314h.913a.314.314,0,0,0,.314-.314V.017Z" transform="translate(-162.935 -0.017)"/><g transform="translate(1.432 2.516)"><g transform="translate(0.99 0.378)"><path class="n" d="M58.437,191.688a.346.346,0,0,1-.346-.346V189a.346.346,0,1,1,.691,0v2.347A.346.346,0,0,1,58.437,191.688Z" transform="translate(-58.091 -188.65)"/></g><g transform="translate(0 0)"><path class="n" d="M38.307,181.881a.345.345,0,0,1-.243-.1l-.747-.738-.747.738a.346.346,0,1,1-.486-.492l.99-.978a.346.346,0,0,1,.486,0l.99.978a.346.346,0,0,1-.243.592Z" transform="translate(-35.981 -180.211)"/></g></g><g transform="translate(6.022 8.843) rotate(180)"><g transform="translate(0.99 0.378)"><path class="o" d="M.346,3.038A.346.346,0,0,1,0,2.693V.346a.346.346,0,0,1,.691,0V2.693A.346.346,0,0,1,.346,3.038Z" transform="translate(0 0)"/></g><g transform="translate(0 0)"><path class="o" d="M.346,1.669A.346.346,0,0,1,.1,1.077L1.093.1a.346.346,0,0,1,.486,0l.99.978a.346.346,0,1,1-.486.492L1.336.832l-.747.738A.345.345,0,0,1,.346,1.669Z"/></g></g></g><path class="ab" d="M269.592,380.486a1.845,1.845,0,0,1-.437.745,5.243,5.243,0,0,1-.936.551,1.531,1.531,0,0,0-.218.162,1.276,1.276,0,0,0-.306-.686.772.772,0,0,0-.763-.234.85.85,0,0,0-.461.4,1.316,1.316,0,0,0,.862,1.955c-.238.889-1.274,1.26-1.341,1.627l-.011,0c0-.02.007-.043.009-.061-.236-.214-.455-.5-.7-.7a4.373,4.373,0,0,1-1.348-2.385,6.149,6.149,0,0,1-.1-2.585,4.337,4.337,0,0,1,4.192-3.636,5.784,5.784,0,0,1,3.242.873v.007a2.036,2.036,0,0,1,1.481.988,1.762,1.762,0,0,1-.139,1.928l-.007.009a2.6,2.6,0,0,1-1.283.749A6.946,6.946,0,0,1,269.592,380.486Z" transform="translate(-252.367 -375.625)"/><path class="aq" d="M294.757,444.454q-.7-1.4-1.4-2.813v-3.717s0-1.755,0-2.536a.567.567,0,0,0-.477-.536h-3.31s-.131-1.357-.264-2.293q1.59.878,3.218,1.667a4.775,4.775,0,0,1,2.12,2.034,47.356,47.356,0,0,1,3.875,8.424,2.425,2.425,0,0,1-1.924,3.1c-1.233.207-2.727.446-4.133.648-.268.036-.533.076-.792.11-.079.009-.158.023-.234.032a3.544,3.544,0,0,0-.151-2.747l1.157-.461Z" transform="translate(-271.412 -419.749)"/><path class="ar" d="M275.486,490.187a4.285,4.285,0,0,1-4.644-1.249.6.6,0,0,1-.095-.713l0,0a6,6,0,0,1-.461-.7.478.478,0,0,1-.038-.369.286.286,0,0,1,.18-.2.411.411,0,0,1-.083-.25c.011-.243.313-.385.549-.331a1.15,1.15,0,0,1,.542.374.57.57,0,0,1-.032-.446c.07-.176.288-.216.479-.072a3.558,3.558,0,0,0,2.291,1.015,2.055,2.055,0,0,1-.738-.617.631.631,0,0,1-.121-.378.321.321,0,0,1,.234-.3.578.578,0,0,1,.428.178c.349.257.77.4,1.139.626a1.864,1.864,0,0,1,.5.43.845.845,0,0,0,.979.29l.675-.268a3.543,3.543,0,0,1,.151,2.747C276.7,490.057,276.042,490.135,275.486,490.187Z" transform="translate(-257.39 -461.13)"/><path class="as" d="M271.554,428.86c-.009.061-.02.124-.029.185-.009-.054-.018-.11-.025-.164Z" transform="translate(-258.375 -416.882)"/><path class="at" d="M260,698.76c-.038.389-.077.774-.112,1.163,0-.389,0-.774,0-1.163Z" transform="translate(-249.372 -626.051)"/><path class="ab" d="M232.427,699.913c0,.734,0,1.469,0,2.2H224.46a2.037,2.037,0,0,1,.74-1.575,10.046,10.046,0,0,1,1.978-1.121,5.444,5.444,0,0,0,1.17-.67h4.082C232.425,699.139,232.425,699.526,232.427,699.913Z" transform="translate(-221.917 -626.043)"/><path class="s" d="M284.181,485.959a.324.324,0,0,0-.234.3.631.631,0,0,0,.121.378,1.435,1.435,0,0,0,.308.331l.259-.812c-.009-.007-.018-.011-.025-.016C284.48,486.04,284.336,485.925,284.181,485.959Z" transform="translate(-268.02 -461.128)"/><path class="s" d="M271.4,486.982a.571.571,0,0,0,.031.445,1.161,1.161,0,0,0-.542-.374.44.44,0,0,0-.549.331.407.407,0,0,0,.083.25.286.286,0,0,0-.18.2.488.488,0,0,0,.038.369,6.019,6.019,0,0,0,.461.7l0,0a.6.6,0,0,0,.095.713,4.792,4.792,0,0,0,1.791,1.231l.083.034.959-3.017a3.566,3.566,0,0,1-1.791-.945C271.688,486.766,271.47,486.807,271.4,486.982Z" transform="translate(-257.386 -461.802)"/><path class="au" d="M286.04,490.736a3.094,3.094,0,0,1-.43-.286l-.07.216A3.614,3.614,0,0,0,286.04,490.736Z" transform="translate(-269.256 -464.613)"/></g></g></svg>