<svg xmlns="http://www.w3.org/2000/svg" xmlns:xlink="http://www.w3.org/1999/xlink" width="18" height="18" viewBox="0 0 18 18"><defs><style>.a,.d,.e,.k{fill:#fff;}.b{fill:#ff6d21;}.c{fill:#08ce73;}.d{opacity:0.372;}.e{opacity:0.572;}.f{fill:url(#a);}.g{fill:#e71c37;}.h{fill:#2699fb;}.i{fill:#79c1ff;}.j{fill:#d08800;}.k{opacity:0.15;}</style><linearGradient id="a" x1="0.5" x2="0.5" y2="1" gradientUnits="objectBoundingBox"><stop offset="0" stop-color="#faca5d"/><stop offset="1" stop-color="#ff6d21"/></linearGradient></defs><g transform="translate(0.316 0.184)"><rect class="a" width="18" height="18" transform="translate(-0.316 -0.184)"/><g transform="translate(-0.316 0.816)"><path class="b" d="M1.406,83H15.467a1.412,1.412,0,0,1,1.406,1.409V86.1a1.412,1.412,0,0,1-1.406,1.409H1.406A1.412,1.412,0,0,1,0,86.1V84.409A1.412,1.412,0,0,1,1.406,83Z" transform="translate(0 -81.007)"/><path class="c" d="M53.856,61.545l8.8-2.339a.564.564,0,0,1,.689.395l1.462,5.41a.566.566,0,0,1-.394.69L52.957,68.758a.564.564,0,0,1-.689-.395L51.2,64.391Z" transform="translate(-49.368 -58.044)"/><path class="d" d="M88.834,100.044l-1.9.507a.277.277,0,0,1-.141-.535l1.634-.437-.874-3.269-1.634.437a.277.277,0,1,1-.141-.535l1.9-.507a.262.262,0,0,1,.338.2l1.014,3.8A.262.262,0,0,1,88.834,100.044Zm-7.89,2.128-1.9.507a.262.262,0,0,1-.338-.2l-1.014-3.8a.262.262,0,0,1,.2-.338l1.9-.507a.277.277,0,1,1,.141.535L78.3,98.8l.874,3.269,1.634-.437a.262.262,0,0,1,.338.2A.273.273,0,0,1,80.944,102.172Z" transform="translate(-74.914 -93.254)"/><path class="c" d="M2.77,32.751c2.508-1.437,9.271-5.4,9.271-5.4a.569.569,0,0,1,.775.2L15.633,32.4a.557.557,0,0,1-.211.761L5.109,39.077a.569.569,0,0,1-.775-.2s-.789-1.606-1.578-2.959C2.756,32.751,2.77,33.793,2.77,32.751Z" transform="translate(-2.657 -27.277)"/><path class="e" d="M18.345,70.372l-1.972-3.41a.268.268,0,0,0-.38-.1l-1.7.986a.278.278,0,0,0,.282.479l1.465-.845,1.691,2.931-1.465.845a.278.278,0,0,0,.282.479l1.7-.986A.273.273,0,0,0,18.345,70.372ZM10.878,74.36,9.413,75.2,7.722,72.274l1.465-.845a.278.278,0,0,0-.282-.479l-1.7.986a.268.268,0,0,0-.1.38l1.972,3.41a.268.268,0,0,0,.38.1l1.7-.986a.268.268,0,0,0,.1-.38A.273.273,0,0,0,10.878,74.36Zm.719-4.974a2.26,2.26,0,1,0,3.085.831A2.258,2.258,0,0,0,11.6,69.386Zm6.749.986-1.972-3.41a.268.268,0,0,0-.38-.1l-1.7.986a.278.278,0,0,0,.282.479l1.465-.845,1.691,2.931-1.465.845a.278.278,0,0,0,.282.479l1.7-.986A.273.273,0,0,0,18.345,70.372ZM10.878,74.36,9.413,75.2,7.722,72.274l1.465-.845a.278.278,0,0,0-.282-.479l-1.7.986a.268.268,0,0,0-.1.38l1.972,3.41a.268.268,0,0,0,.38.1l1.7-.986a.268.268,0,0,0,.1-.38A.273.273,0,0,0,10.878,74.36Zm.719-4.974a2.26,2.26,0,1,0,3.085.831A2.258,2.258,0,0,0,11.6,69.386Z" transform="translate(-6.806 -65.406)"/><path class="f" d="M16.03,135.064H1.406A1.412,1.412,0,0,1,0,133.655V123.511H16.03a1.412,1.412,0,0,1,1.406,1.409v8.735A1.412,1.412,0,0,1,16.03,135.064ZM1.125,123.511H0v-1.127A1.129,1.129,0,0,0,1.125,123.511Z" transform="translate(0 -119.012)"/><path class="g" d="M374.443,272.053h-2.254a1.972,1.972,0,0,1,0-3.945h2.254a.565.565,0,0,1,.564.564v2.818A.565.565,0,0,1,374.443,272.053Z" transform="translate(-357.006 -259.514)"/><path class="h" d="M394.973,291.738a1.127,1.127,0,1,1-1.127,1.127A1.13,1.13,0,0,1,394.973,291.738Z" transform="translate(-379.791 -282.298)"/><path class="i" d="M395.255,299.026a1.136,1.136,0,0,1-.93-1.775,1.1,1.1,0,0,0-.479.93,1.131,1.131,0,0,0,1.127,1.127,1.173,1.173,0,0,0,.93-.479A1.136,1.136,0,0,1,395.255,299.026Z" transform="translate(-379.791 -287.614)"/><path class="j" d="M16.03,423.116H1.406A1.412,1.412,0,0,1,0,421.707v.564a1.412,1.412,0,0,0,1.406,1.409H16.03a1.412,1.412,0,0,0,1.406-1.409v-.564A1.412,1.412,0,0,1,16.03,423.116Z" transform="translate(0 -407.627)"/><path class="j" d="M16.03,123.511H1.125A1.129,1.129,0,0,1,0,122.384v.564a1.129,1.129,0,0,0,1.125,1.127H16.03a1.412,1.412,0,0,1,1.406,1.409v-.564A1.412,1.412,0,0,0,16.03,123.511Z" transform="translate(0 -118.99)"/><path class="k" d="M16.017,135.718H1.405A1.384,1.384,0,0,1,0,134.365V124.3c6.429,10.72,17.655-1.707,17.422,10.067A1.384,1.384,0,0,1,16.017,135.718Z" transform="translate(0 -119.665)"/></g></g></svg>