<svg xmlns="http://www.w3.org/2000/svg" xmlns:xlink="http://www.w3.org/1999/xlink" width="18.5" height="18.499" viewBox="0 0 18.5 18.499"><defs><style>.a{fill:none;}.b{fill:#2699fb;}.c{fill:#e71c37;}.d{fill:url(#a);}.e,.f{fill:#08ce73;}.e{stroke:rgba(0,0,0,0);}.g{fill:#fff;}.h{fill:url(#b);}.i{fill:#666;}</style><linearGradient id="a" x1="0.462" y1="0.03" x2="0.5" y2="1.077" gradientUnits="objectBoundingBox"><stop offset="0" stop-color="#faca5d"/><stop offset="1" stop-color="#ff6d21"/></linearGradient><linearGradient id="b" x1="0" y1="0.5" x2="1" y2="0.5" xlink:href="#a"/></defs><g transform="translate(-1558.5 -545)"><rect class="a" width="18" height="18" transform="translate(1559 545)"/><g transform="translate(-220 -939)"><path class="b" d="M52.421,70.521H48.848a.425.425,0,0,0,0,.85h3.573a.425.425,0,0,0,0-.85Z" transform="translate(1736.881 1423.525)"/><path class="c" d="M27.049,44.2a.571.571,0,0,0,.808,0l.9-.9a.425.425,0,1,0-.6-.6h0l-.7.7-.2-.2a.435.435,0,0,0-.6,0,.426.426,0,0,0,0,.6Z" transform="translate(1755.601 1447.413)"/><path class="b" d="M48.844,45.828a.425.425,0,0,0,0,.85h3.573a.425.425,0,0,0,0-.85Z" transform="translate(1736.886 1444.632)"/><path class="c" d="M27.049,68.9a.571.571,0,0,0,.807,0h0l.9-.9a.425.425,0,0,0-.6-.6h0l-.7.7-.2-.2a.435.435,0,0,0-.6,0,.426.426,0,0,0,0,.6Z" transform="translate(1755.601 1426.302)"/><path class="d" d="M30.171,6.854h5.076a.931.931,0,0,0,.865-.674.725.725,0,0,0,.032-.167V4.926a.812.812,0,0,0-.032-.168.953.953,0,0,0-.129-.269.931.931,0,0,0-.765-.4h-.547V4.013A1.941,1.941,0,0,0,32.735,2.1h-.029a1.961,1.961,0,0,0-1.375.56,1.927,1.927,0,0,0-.578,1.353v.078h-.547a.931.931,0,0,0-.765.4.954.954,0,0,0-.129.269.752.752,0,0,0-.032.174V6.006a.707.707,0,0,0,.032.174A.928.928,0,0,0,30.171,6.854Zm1.5-2.845A1.025,1.025,0,0,1,32.69,3.02h.045a1.025,1.025,0,0,1,1.018.989v.083h-2.08Z" transform="translate(1753.204 1481.9)"/><g transform="translate(1779 1486.758)"><path class="e" d="M15.577,34.247h-8a1.339,1.339,0,0,1-1.247-.779,2.115,2.115,0,0,1-.16-1v-7.9c0-.575,0-1.224.03-1.847A1.348,1.348,0,0,1,7.454,21.49c.127-.01.267-.013.439-.016h.059V20.241H7.684a2.554,2.554,0,0,0-1.225.264A2.7,2.7,0,0,0,5,23.059c0,1.571,0,3.167,0,4.713v.512c0,1,0,.172,0,1.169,0,.424,0,.856,0,1.275l0,.179c0,1.2,0,.852.02,2.079a2.583,2.583,0,0,0,2.558,2.5h.011c1.418-.006,2.8-.012,4.217-.012h.3c.87,0,4.406,0,6.1,0A13.38,13.38,0,0,1,15.577,34.247Z" transform="translate(-4.993 -20.24)"/><path class="f" d="M80.978,21.477A1.34,1.34,0,0,1,82.228,22.7c.033.616.032,1.258.032,1.827v3.725a4.394,4.394,0,0,1,.586.267,4.649,4.649,0,0,1,.587-.268c0-2.047,0-4.4,0-5.217A2.67,2.67,0,0,0,81.972,20.5a2.575,2.575,0,0,0-1.225-.261h-.266v1.22h.058C80.711,21.464,80.851,21.467,80.978,21.477Z" transform="translate(-69.524 -20.24)"/></g><g transform="translate(1788.145 1493.87)"><rect class="g" width="8.129" height="8.129" rx="1" transform="translate(0 0)"/><g transform="translate(0.793 0.793)"><g transform="translate(0 0)"><g transform="translate(0 0.156)"><path class="c" d="M1131.328,815.626h-5.52a.5.5,0,0,0-.512.5v.893h6.543v-.893A.5.5,0,0,0,1131.328,815.626Zm-5.213.991a.3.3,0,1,1,.307-.3.3.3,0,0,1-.307.3Zm4.908,0a.3.3,0,1,1,.309-.3.3.3,0,0,1-.309.3Z" transform="translate(-1125.297 -815.626)"/></g><g transform="translate(0.675)"><path class="g" d="M1129.137,815.665a.144.144,0,0,1-.154-.134v-.625a.145.145,0,0,1,.154-.134.147.147,0,0,1,.156.134v.625A.146.146,0,0,1,1129.137,815.665Z" transform="translate(-1128.982 -814.772)"/><path class="g" d="M1156.352,815.665a.144.144,0,0,1-.154-.134v-.625a.156.156,0,0,1,.309,0v.625A.144.144,0,0,1,1156.352,815.665Z" transform="translate(-1151.3 -814.772)"/></g></g><g transform="translate(0 1.586)"><path class="h" d="M1125.3,823.562v4.419a.525.525,0,0,0,.512.538h5.52a.525.525,0,0,0,.512-.538v-4.419Z" transform="translate(-1125.297 -823.562)"/><g transform="translate(0.83 1.002)"><path class="g" d="M4.151,2.491a.415.415,0,1,1,.415.415A.416.416,0,0,1,4.151,2.491Zm-1.038,0a.415.415,0,1,1,.415.415A.415.415,0,0,1,3.113,2.491Zm-1.038,0a.415.415,0,1,1,.415.415A.415.415,0,0,1,2.075,2.491Zm-1.038,0a.415.415,0,1,1,.415.415A.415.415,0,0,1,1.037,2.491ZM0,2.491a.415.415,0,1,1,.416.415A.415.415,0,0,1,0,2.491ZM4.151,1.453a.415.415,0,1,1,.415.415A.416.416,0,0,1,4.151,1.453ZM2.49,1.868a.415.415,0,1,1,.415-.415.415.415,0,0,1-.415.415Zm-1.038,0a.415.415,0,1,1,.415-.415.415.415,0,0,1-.415.415ZM0,1.453a.415.415,0,1,1,.415.415A.415.415,0,0,1,0,1.453ZM4.151.415a.415.415,0,1,1,.415.416A.415.415,0,0,1,4.151.415Zm-1.038,0a.415.415,0,1,1,.415.416A.415.415,0,0,1,3.113.415Zm-1.038,0A.415.415,0,1,1,2.49.831.415.415,0,0,1,2.075.415Zm-1.038,0a.415.415,0,1,1,.415.416A.415.415,0,0,1,1.037.415ZM0,.415A.415.415,0,1,1,.415.831.415.415,0,0,1,0,.415Z" transform="translate(0)"/><path class="i" d="M1147.256,834.335a.415.415,0,1,0,.414.416A.415.415,0,0,0,1147.256,834.335Z" transform="translate(-1143.728 -833.359)"/></g></g></g></g></g></g></svg>