<svg xmlns="http://www.w3.org/2000/svg" xmlns:xlink="http://www.w3.org/1999/xlink" width="18" height="18" viewBox="0 0 18 18"><defs><style>.a{fill:none;}.b{fill:#fff;}.c{fill:#e71c37;}.d{fill:#08ce73;}.e{fill:#2699fb;}.f{fill:url(#a);}.g{fill:url(#b);}</style><linearGradient id="a" x1="0.5" y1="0.271" x2="0.5" y2="1" gradientUnits="objectBoundingBox"><stop offset="0" stop-color="#faca5d"/><stop offset="1" stop-color="#ff6d21"/></linearGradient><linearGradient id="b" x1="0.5" x2="0.5" y2="1" gradientUnits="objectBoundingBox"><stop offset="0" stop-color="#e71c37"/><stop offset="1" stop-color="#ff6d21"/></linearGradient></defs><g transform="translate(-281 -764)"><rect class="a" width="18" height="18" transform="translate(281 764)"/><g transform="translate(281.848 764)"><g transform="translate(1.153)"><path class="b" d="M91.441,27.723V40.007a1.484,1.484,0,0,1-1.469,1.5h-8a1.484,1.484,0,0,1-1.469-1.5V28.472h1.836a.744.744,0,0,0,.734-.749V26h6.9a1.484,1.484,0,0,1,1.469,1.5Zm-1.689,2.4v-.9a.074.074,0,0,0-.073-.075H88.467a.074.074,0,0,1-.073-.075V27.835a.074.074,0,0,0-.073-.075H87.4a.074.074,0,0,0-.073.075v1.236a.074.074,0,0,1-.073.075H85.971a.074.074,0,0,0-.073.075v.9a.074.074,0,0,0,.073.075h1.285a.074.074,0,0,1,.073.075v1.348a.074.074,0,0,0,.073.075h.918a.074.074,0,0,0,.073-.075V30.27a.074.074,0,0,1,.073-.075h1.212A.074.074,0,0,0,89.752,30.12Z" transform="translate(-80.21 -25.73)"/><path class="c" d="M231.553,74.505v.926a.077.077,0,0,1-.077.077H230.2a.077.077,0,0,0-.077.077v1.39a.077.077,0,0,1-.077.077h-.965a.077.077,0,0,1-.077-.077v-1.39a.077.077,0,0,0-.077-.077h-1.351a.077.077,0,0,1-.077-.077v-.926a.077.077,0,0,1,.077-.077h1.351a.077.077,0,0,0,.077-.077V73.077a.077.077,0,0,1,.077-.077h.965a.077.077,0,0,1,.077.077v1.274a.077.077,0,0,0,.077.077h1.274A.077.077,0,0,1,231.553,74.505Z" transform="translate(-221.835 -70.916)"/><path class="d" d="M83.2,26v1.776a.774.774,0,0,1-.772.772H80.5v-.1L83.185,26Z" transform="translate(-80.21 -25.73)"/><path class="d" d="M-4261.824,2284.1h-.522a.032.032,0,0,1,0-.007h-.038a1.77,1.77,0,0,1-1.769-1.767v-11.68a.268.268,0,0,1,.094-.194l2.6-2.383a.262.262,0,0,1,.177-.068h7.015a1.766,1.766,0,0,1,1.744,1.627l0,.629h-.01v2.669l-.035,9.676c0,.032,0,.068,0,.109a1.765,1.765,0,0,1-.463.863,1.714,1.714,0,0,1-1.229.52h-7.556v.006Zm-1.808-13.09v11.317a1.245,1.245,0,0,0,1.248,1.24h8.116a1.227,1.227,0,0,0,1.21-1.24v-12.558a1.227,1.227,0,0,0-1.21-1.24h-6.757v1.466a.991.991,0,0,1-.988,1.016Zm2.084-2.164-1.76,1.637h1.295a.473.473,0,0,0,.465-.489Z" transform="translate(4264.152 -2268)"/><path class="e" d="M119.77,186.54h2.7a.27.27,0,1,0,0-.54h-2.7a.27.27,0,1,0,0,.54Z" transform="translate(-117.705 -179.726)"/><path class="e" d="M119.77,235.54h4.092a.27.27,0,0,0,0-.54H119.77a.27.27,0,1,0,0,.54Z" transform="translate(-117.705 -227.29)"/><path class="e" d="M119.77,284.54h4.092a.27.27,0,0,0,0-.54H119.77a.27.27,0,1,0,0,.54Z" transform="translate(-117.705 -274.854)"/><path class="e" d="M119.77,333.54h6.446a.27.27,0,1,0,0-.54H119.77a.27.27,0,0,0,0,.54Z" transform="translate(-117.705 -322.417)"/><path class="e" d="M128.147,382.27a.27.27,0,0,0-.27-.27H119.77a.27.27,0,1,0,0,.54h8.106A.27.27,0,0,0,128.147,382.27Z" transform="translate(-117.705 -368.363)"/></g><g transform="translate(0 7.77)"><g transform="translate(6.417 -2.897)"><path class="f" d="M5.7,16.377l2.531-4.551-.018-2.1H7.864a.365.365,0,0,1,0-.729H12.24a.365.365,0,0,1,0,.729h-.346l-.018,2.1,2.531,4.551a1.664,1.664,0,0,1-1.455,2.469h-5.8A1.664,1.664,0,0,1,5.7,16.377Zm5.5-4.281a.368.368,0,0,1-.047-.182l.018-2.184H8.94l.018,2.184a.368.368,0,0,1-.047.182l-1.3,2.345a8.383,8.383,0,0,0,2.166-.346,9.33,9.33,0,0,1,2.323-.368Z" transform="translate(-5.49 -5.718)"/><path class="g" d="M5.7,16.377l2.531-4.551-.018-2.1H7.864a.365.365,0,0,1,0-.729H12.24a.365.365,0,0,1,0,.729h-.346l-.018,2.1,2.531,4.551a1.664,1.664,0,0,1-1.455,2.469h-5.8A1.664,1.664,0,0,1,5.7,16.377Zm5.5-4.281a.368.368,0,0,1-.047-.182l.018-2.184H8.94l.018,2.184a.368.368,0,0,1-.047.182l-1.3,2.345a8.383,8.383,0,0,0,2.166-.346,9.33,9.33,0,0,1,2.323-.368Z" transform="translate(-5.49 -5.718)"/></g></g></g></g></svg>