<svg xmlns="http://www.w3.org/2000/svg" xmlns:xlink="http://www.w3.org/1999/xlink" width="20" height="20" viewBox="0 0 44 44"><defs><style>.b{fill:url(#a);}</style><linearGradient id="a" y1="0.5" x2="1" y2="0.5" gradientUnits="objectBoundingBox"><stop offset="0" stop-color="#faca5d"></stop><stop offset="1" stop-color="#ff6d21"></stop></linearGradient></defs><g transform="translate(-1125.297 -814.773)"><rect fill="none" width="44" height="44" transform="translate(1125.297 814.773)"></rect><g transform="translate(1125.298 822.887)"><path class="b" d="M1125.3,823.562v21.462a2.619,2.619,0,0,0,2.617,2.616h28.265a2.62,2.62,0,0,0,2.616-2.616V823.562Z" transform="translate(-1125.298 -823.562)"></path></g><g transform="translate(1125.297 815.56)"><path fill="#0ce277" d="M1156.179,815.626h-28.265a2.62,2.62,0,0,0-2.617,2.617v4.71h33.5v-4.713A2.621,2.621,0,0,0,1156.179,815.626Zm-26.695,5.235a1.572,1.572,0,1,1,1.572-1.572,1.572,1.572,0,0,1-1.572,1.572Zm25.124,0a1.572,1.572,0,1,1,1.573-1.572,1.572,1.572,0,0,1-1.573,1.572Z" transform="translate(-1125.297 -815.626)"></path></g><path fill="#fff" d="M-6103.766,6147.336a2.1,2.1,0,0,1,2.094-2.094,2.1,2.1,0,0,1,2.093,2.094,2.094,2.094,0,0,1-2.093,2.094A2.1,2.1,0,0,1-6103.766,6147.336Zm-5.233,0a2.094,2.094,0,0,1,2.093-2.094,2.1,2.1,0,0,1,2.094,2.094,2.1,2.1,0,0,1-2.094,2.094A2.094,2.094,0,0,1-6109,6147.336Zm-5.236,0a2.1,2.1,0,0,1,2.093-2.094,2.1,2.1,0,0,1,2.094,2.094,2.094,2.094,0,0,1-2.094,2.094A2.1,2.1,0,0,1-6114.236,6147.336Zm-5.235,0a2.094,2.094,0,0,1,2.094-2.094,2.1,2.1,0,0,1,2.093,2.094,2.1,2.1,0,0,1-2.093,2.094A2.094,2.094,0,0,1-6119.471,6147.336Zm-5.232,0a2.1,2.1,0,0,1,2.093-2.094,2.1,2.1,0,0,1,2.094,2.094,2.094,2.094,0,0,1-2.091,2.094A2.1,2.1,0,0,1-6124.7,6147.336Zm20.935-5.233a2.1,2.1,0,0,1,2.094-2.1,2.1,2.1,0,0,1,2.094,2.1,2.093,2.093,0,0,1-2.094,2.092A2.1,2.1,0,0,1-6103.768,6142.1Zm-8.375,2.092a2.1,2.1,0,0,1-2.094-2.094,2.1,2.1,0,0,1,2.094-2.094,2.1,2.1,0,0,1,2.094,2.1,2.091,2.091,0,0,1-2.091,2.092Zm-5.235,0a2.1,2.1,0,0,1-2.094-2.094,2.094,2.094,0,0,1,2.1-2.094,2.1,2.1,0,0,1,2.093,2.1,2.092,2.092,0,0,1-2.091,2.092Zm-7.325-2.092a2.094,2.094,0,0,1,2.093-2.1,2.1,2.1,0,0,1,2.094,2.1,2.093,2.093,0,0,1-2.094,2.092A2.093,2.093,0,0,1-6124.7,6142.1Zm20.937-5.237a2.094,2.094,0,0,1,2.094-2.093,2.093,2.093,0,0,1,2.094,2.094,2.1,2.1,0,0,1-2.094,2.095A2.1,2.1,0,0,1-6103.766,6136.867Zm-5.236,0a2.1,2.1,0,0,1,2.1-2.093,2.1,2.1,0,0,1,2.094,2.094,2.1,2.1,0,0,1-2.1,2.095A2.1,2.1,0,0,1-6109,6136.867Zm-5.235,0a2.1,2.1,0,0,1,2.094-2.093,2.1,2.1,0,0,1,2.094,2.094,2.094,2.094,0,0,1-2.094,2.095A2.1,2.1,0,0,1-6114.237,6136.867Zm-5.235,0a2.094,2.094,0,0,1,2.1-2.093,2.1,2.1,0,0,1,2.093,2.094,2.094,2.094,0,0,1-2.094,2.095A2.1,2.1,0,0,1-6119.472,6136.867Zm-5.23,0a2.092,2.092,0,0,1,2.093-2.094,2.1,2.1,0,0,1,2.094,2.094,2.094,2.094,0,0,1-2.094,2.095A2.094,2.094,0,0,1-6124.7,6136.868Z" transform="translate(7254.188 -5307.176)"></path><path fill="#2699fb" d="M-6099.58,6139.222v-3.663a.786.786,0,0,1,.787-.786.785.785,0,0,1,.786.786v3.663a.786.786,0,0,1-.786.787A.786.786,0,0,1-6099.58,6139.222Zm-25.124,0v-3.663a.785.785,0,0,1,.786-.786.785.785,0,0,1,.786.786v3.663a.786.786,0,0,1-.786.787A.785.785,0,0,1-6124.7,6139.222Z" transform="translate(7253.402 -5320)"></path><circle fill="#e71c37" cx="11" cy="11" r="11" transform="translate(1147.297 836.773)"></circle><path fill="#fff" d="M1160.6,841.7a8.374,8.374,0,1,0,8.374,8.374A8.374,8.374,0,0,0,1160.6,841.7Zm0,9.589a1.216,1.216,0,1,1,1.217-1.216A1.216,1.216,0,0,1,1160.6,851.292Z" transform="translate(-2.068 -2.068)"></path><path fill="#666" d="M1148.935,834.335a2.093,2.093,0,1,0,2.094,2.094A2.093,2.093,0,0,0,1148.935,834.335Z" transform="translate(-1.654 -1.502)"></path><path fill="#666" d="M-6117.971,6148.26a.577.577,0,0,1-.571-.582v-.533a.576.576,0,0,1,.577-.577.575.575,0,0,1,.576.577v.542a.576.576,0,0,1-.576.572Zm-.778-5.141a1.793,1.793,0,0,1-.818-2.4l-1.278-1.281a.575.575,0,0,1,0-.815.576.576,0,0,1,.815,0l1.281,1.278a1.793,1.793,0,0,1,1.583,0l2.858-2.856h0l.008-.007a.574.574,0,0,1,.814.007.577.577,0,0,1-.006.816l-.084.083-2.774,2.774a1.8,1.8,0,0,1,0,1.583,1.791,1.791,0,0,1-1.609,1A1.783,1.783,0,0,1-6118.749,6143.119Zm.151-1.609a.64.64,0,0,0,.64.64.64.64,0,0,0,.639-.64.639.639,0,0,0-.639-.637A.639.639,0,0,0-6118.6,6141.51Zm6.277.586a.579.579,0,0,1-.571-.571.577.577,0,0,1,.571-.583h.532a.576.576,0,0,1,.571.571.578.578,0,0,1-.571.583Zm-11.806-.014a.577.577,0,0,1-.577-.577.578.578,0,0,1,.577-.579h.534a.579.579,0,0,1,.577.579.578.578,0,0,1-.577.577Zm5.6-6.206v-.532a.576.576,0,0,1,.571-.571.576.576,0,0,1,.583.571v.532a.577.577,0,0,1-.577.576A.576.576,0,0,1-6118.528,6135.876Z" transform="translate(7276.49 -5293.502)"></path></g></svg>