<svg xmlns="http://www.w3.org/2000/svg" xmlns:xlink="http://www.w3.org/1999/xlink" width="18" height="18" viewBox="0 0 18 18"><defs><style>.a{fill:#fff;}.b{fill:#08ce73;}.c{fill:url(#a);}</style><linearGradient id="a" x1="0.462" y1="0.03" x2="0.5" y2="1.077" gradientUnits="objectBoundingBox"><stop offset="0" stop-color="#faca5d"/><stop offset="1" stop-color="#ff6d21"/></linearGradient></defs><g transform="translate(-721 -772)"><rect class="a" width="18" height="18" transform="translate(721 772)"/><g transform="translate(177 14)"><path class="b" d="M332.776,124.442l-.822-2.467a.546.546,0,0,1,.036-.424,6.433,6.433,0,0,0-3.657-9.037,7.671,7.671,0,0,1,.452,4.359,7.542,7.542,0,0,1-6.056,6,7.888,7.888,0,0,1-1.191.116,6.428,6.428,0,0,0,7.638,1.368.545.545,0,0,1,.421-.035l2.477.825A.554.554,0,0,0,332.776,124.442Z" transform="translate(229.194 650.019)"/><path class="c" d="M312.108,104.9a6.431,6.431,0,0,0-4.489,9.256.546.546,0,0,1,.036.424l-.822,2.467a.554.554,0,0,0,.7.7l2.477-.825a.545.545,0,0,1,.421.035,6.437,6.437,0,1,0,1.676-12.058Zm1.638,8.322h-3.2a.571.571,0,0,1,0-1.142h3.2a.571.571,0,1,1,0,1.142Zm2.285-2.285h-5.483a.571.571,0,0,1,0-1.142h5.483a.571.571,0,1,1,0,1.142Z" transform="translate(237.197 654.218)"/></g></g></svg>