<svg xmlns="http://www.w3.org/2000/svg" xmlns:xlink="http://www.w3.org/1999/xlink" width="18" height="18" viewBox="0 0 18 18"><defs><style>.a{fill:none;}.b{fill:url(#a);}.c{fill:#2699fb;}.d{fill:#e71c37;}.e{fill:url(#b);}.f{fill:#08ce73;}</style><linearGradient id="a" x1="0.5" x2="0.5" y2="1" gradientUnits="objectBoundingBox"><stop offset="0" stop-color="#e71c37"/><stop offset="1" stop-color="#ff6d21"/></linearGradient><linearGradient id="b" x1="0.462" y1="0.03" x2="0.5" y2="1.077" gradientUnits="objectBoundingBox"><stop offset="0" stop-color="#faca5d"/><stop offset="1" stop-color="#ff6d21"/></linearGradient></defs><g transform="translate(-1612 -1283)"><rect class="a" width="18" height="18" transform="translate(1612 1283)"/><g transform="translate(1612.488 1283)"><path class="b" d="M77.83,80.445a2.178,2.178,0,0,0-2.613-1.2,3.766,3.766,0,0,0-.671.3l-.181.1a.3.3,0,0,1-.043.016H74.3a.351.351,0,0,1-.045-.016l-.179-.1a3.766,3.766,0,0,0-.671-.3,2.177,2.177,0,0,0-2.613,1.2c-.788,1.643.13,3.444,2.514,4.938.079.051.16.1.241.15.113.068.533.335.762.481.238-.153.65-.415.759-.481.081-.049.162-.1.241-.149C77.7,83.888,78.618,82.088,77.83,80.445Z" transform="translate(-61.052 -68.014)"/><path class="c" d="M52.4,70.521H48.846a.423.423,0,0,0,0,.846H52.4a.423.423,0,0,0,0-.846Z" transform="translate(-42.148 -60.634)"/><path class="d" d="M27.047,44.2a.569.569,0,0,0,.8,0l.9-.9a.423.423,0,0,0-.6-.6h0l-.7.7-.2-.2a.433.433,0,0,0-.6,0,.424.424,0,0,0,0,.6Z" transform="translate(-23.414 -36.727)"/><path class="c" d="M48.842,45.828a.423.423,0,0,0,0,.846H52.4a.423.423,0,0,0,0-.846Z" transform="translate(-42.144 -39.509)"/><path class="d" d="M27.046,68.891a.568.568,0,0,0,.8,0h0l.9-.9a.423.423,0,1,0-.6-.6h0l-.7.7-.2-.2a.433.433,0,0,0-.6,0,.424.424,0,0,0,0,.6Z" transform="translate(-23.414 -57.855)"/><path class="e" d="M30.167,6.833h5.053a.926.926,0,0,0,.861-.671A.722.722,0,0,0,36.114,6V4.914a.808.808,0,0,0-.032-.168.949.949,0,0,0-.129-.267.926.926,0,0,0-.762-.4h-.545V4a1.933,1.933,0,0,0-1.928-1.9H32.69a1.952,1.952,0,0,0-1.368.558A1.918,1.918,0,0,0,30.747,4v.078H30.2a.926.926,0,0,0-.762.4.949.949,0,0,0-.129.267.753.753,0,0,0-.032.173V5.989a.707.707,0,0,0,.032.173A.924.924,0,0,0,30.167,6.833ZM31.662,4a1.02,1.02,0,0,1,1.013-.984h.045A1.02,1.02,0,0,1,33.732,4v.082H31.662Z" transform="translate(-25.77 -2.1)"/><path class="f" d="M15.385,34.272H7.569a1.332,1.332,0,0,1-1.241-.78,2.131,2.131,0,0,1-.159-1V24.576c0-.576,0-1.226.03-1.85a1.346,1.346,0,0,1,1.244-1.234c.126-.01.266-.013.437-.016h.059V20.241H7.672a2.53,2.53,0,0,0-1.219.264A2.706,2.706,0,0,0,5,23.063c0,1.574,0,3.173,0,4.721V28.3c0,1,0,.172,0,1.171,0,.425,0,.857,0,1.277l0,.179c0,1.2,0,.853.02,2.083a2.549,2.549,0,0,0,.765,1.758,2.519,2.519,0,0,0,1.781.744h.011c1.412-.006,2.792-.012,4.2-.012h.3c.866,0,3.23,0,4.92,0l-.043-.027A9.44,9.44,0,0,1,15.385,34.272Z" transform="translate(-4.993 -17.618)"/><path class="f" d="M80.976,21.492a1.344,1.344,0,0,1,1.244,1.234c.033.623.032,1.274.032,1.85v3.771a4.35,4.35,0,0,1,.583.27,4.593,4.593,0,0,1,.585-.272c0-2.072,0-4.452,0-5.282a2.711,2.711,0,0,0-1.456-2.558,2.526,2.526,0,0,0-1.219-.264h-.264v1.235h.058C80.71,21.479,80.85,21.482,80.976,21.492Z" transform="translate(-69.573 -17.618)"/></g></g></svg>