<svg xmlns="http://www.w3.org/2000/svg" xmlns:xlink="http://www.w3.org/1999/xlink" width="18" height="18" viewBox="0 0 18 18"><defs><style>.a{fill:none;}.b{fill:#fff;}.c{fill:#e71c37;}.d{fill:#08ce73;}.e{fill:#2699fb;}.f{fill:#d1d1d1;}.g{fill:url(#a);}</style><linearGradient id="a" x1="0.5" y1="0.271" x2="0.5" y2="1" gradientUnits="objectBoundingBox"><stop offset="0" stop-color="#faca5d"/><stop offset="1" stop-color="#ff6d21"/></linearGradient></defs><g transform="translate(0.106 -0.622)"><rect class="a" width="18" height="18" transform="translate(-0.106 0.622)"/><g transform="translate(0.893 0.622)"><g transform="translate(1.153)"><path class="b" d="M140.035,73.5V86.007a1.527,1.527,0,0,1-1.553,1.5h-8.428a1.527,1.527,0,0,1-1.553-1.5v-.225h8.156a1.527,1.527,0,0,0,1.554-1.5V72h.272A1.527,1.527,0,0,1,140.035,73.5Z" transform="translate(-126.92 -69.954)"/><path class="b" d="M91.441,27.723V40.007a1.484,1.484,0,0,1-1.469,1.5h-8a1.484,1.484,0,0,1-1.469-1.5V28.472h1.836a.744.744,0,0,0,.734-.749V26h6.9a1.484,1.484,0,0,1,1.469,1.5Zm-1.689,2.4v-.9a.074.074,0,0,0-.073-.075H88.467a.074.074,0,0,1-.073-.075V27.835a.074.074,0,0,0-.073-.075H87.4a.074.074,0,0,0-.073.075v1.236a.074.074,0,0,1-.073.075H85.971a.074.074,0,0,0-.073.075v.9a.074.074,0,0,0,.073.075h1.285a.074.074,0,0,1,.073.075v1.348a.074.074,0,0,0,.073.075h.918a.074.074,0,0,0,.073-.075V30.27a.074.074,0,0,1,.073-.075h1.212A.074.074,0,0,0,89.752,30.12Z" transform="translate(-80.21 -25.73)"/><path class="c" d="M231.553,74.505v.926a.077.077,0,0,1-.077.077H230.2a.077.077,0,0,0-.077.077v1.39a.077.077,0,0,1-.077.077h-.965a.077.077,0,0,1-.077-.077v-1.39a.077.077,0,0,0-.077-.077h-1.351a.077.077,0,0,1-.077-.077v-.926a.077.077,0,0,1,.077-.077h1.351a.077.077,0,0,0,.077-.077V73.077a.077.077,0,0,1,.077-.077h.965a.077.077,0,0,1,.077.077v1.274a.077.077,0,0,0,.077.077h1.274A.077.077,0,0,1,231.553,74.505Z" transform="translate(-221.835 -70.916)"/><path class="d" d="M83.2,26v1.776a.774.774,0,0,1-.772.772H80.5v-.1L83.185,26Z" transform="translate(-80.21 -25.73)"/><path class="d" d="M84.635,20.729h0A1.76,1.76,0,0,0,82.885,19H75.869a.259.259,0,0,0-.176.069l-2.6,2.383a.274.274,0,0,0-.094.194V33.325a1.776,1.776,0,0,0,1.768,1.767h.038a1.76,1.76,0,0,0,1.749,1.729h8.079a1.728,1.728,0,0,0,1.229-.52,1.762,1.762,0,0,0,.5-1.247V22.5a1.762,1.762,0,0,0-.5-1.247A1.728,1.728,0,0,0,84.635,20.729Zm-9.029-.885v1.148a.472.472,0,0,1-.465.489h-1.3ZM73.521,33.325V22.008h1.62a1,1,0,0,0,.987-1.015V19.526h6.757a1.22,1.22,0,0,1,1.21,1.241V33.325a1.22,1.22,0,0,1-1.21,1.241H74.768A1.252,1.252,0,0,1,73.521,33.325Zm12.323,1.729a1.22,1.22,0,0,1-1.21,1.241H76.556a1.235,1.235,0,0,1-1.228-1.2h7.557a1.728,1.728,0,0,0,1.229-.52,1.762,1.762,0,0,0,.5-1.247V21.256A1.217,1.217,0,0,1,85.845,22.5Z" transform="translate(-73 -19)"/><path class="e" d="M119.77,186.54h2.7a.27.27,0,1,0,0-.54h-2.7a.27.27,0,1,0,0,.54Z" transform="translate(-117.705 -179.726)"/><path class="e" d="M119.77,235.54h4.092a.27.27,0,0,0,0-.54H119.77a.27.27,0,1,0,0,.54Z" transform="translate(-117.705 -227.29)"/><path class="e" d="M119.77,284.54h4.092a.27.27,0,0,0,0-.54H119.77a.27.27,0,1,0,0,.54Z" transform="translate(-117.705 -274.854)"/><path class="e" d="M119.77,333.54h6.446a.27.27,0,1,0,0-.54H119.77a.27.27,0,0,0,0,.54Z" transform="translate(-117.705 -322.417)"/><path class="f" d="M128.147,382.27a.27.27,0,0,0-.27-.27H119.77a.27.27,0,1,0,0,.54h8.106A.27.27,0,0,0,128.147,382.27Z" transform="translate(-117.705 -368.363)"/></g><g transform="translate(0 7.77)"><path class="g" d="M7798.866-5580.818l.611,6.3a3.267,3.267,0,0,0,.4,1.418,1.933,1.933,0,0,0,1.206.431l10.721.016a2.056,2.056,0,0,0,1.436-.686,2.865,2.865,0,0,0,.606-1.574l.564-7.971h-3.1l-1.973,2.061Z" transform="translate(-7798.866 5582.879)"/></g></g></g></svg>