<svg xmlns="http://www.w3.org/2000/svg" xmlns:xlink="http://www.w3.org/1999/xlink" width="18" height="18" viewBox="0 0 18 18"><defs><style>.a{fill:none;}.b{fill:#08ce73;}.c{fill:url(#a);}.d{fill:url(#b);}.e{fill:#ffa700;}.f{fill:#fff;}.g{fill:#2699fb;}.h{fill:#e71c37;}.i{fill:#e2e2e2;}</style><linearGradient id="a" x1="0.5" x2="0.5" y2="1" gradientUnits="objectBoundingBox"><stop offset="0" stop-color="#faca5d"/><stop offset="1" stop-color="#ff6d21"/></linearGradient><linearGradient id="b" x1="0.5" x2="0.5" y2="1" gradientUnits="objectBoundingBox"><stop offset="0" stop-color="#faca5d"/><stop offset="1" stop-color="#ff9057"/></linearGradient></defs><g transform="translate(0.316 0.248)"><rect class="a" width="18" height="18" transform="translate(-0.316 -0.247)"/><g transform="translate(-0.316 -0.248)"><circle class="b" cx="2.607" cy="2.607" r="2.607" transform="translate(0.579 4.055)"/><circle class="b" cx="2.607" cy="2.607" r="2.607" transform="translate(11.553 4.055)"/><circle class="b" cx="2.607" cy="2.607" r="2.607" transform="translate(6.203 0.319)"/><rect class="c" width="9.851" height="7.228" transform="translate(5.179 10.656)"/><path class="d" d="M11.766,47.228H8V42.065L8.29,40h3.477Z" transform="translate(-6.262 -29.344)"/><path class="e" d="M30.851,40l1.738,1.738H22.738L21,40Z" transform="translate(-15.821 -29.314)"/><path class="f" d="M10.538,22.314a.823.823,0,0,0-.846-.2l-.6.2a.247.247,0,0,1-.253-.41l.06-.06a.248.248,0,0,1,.35,0l.029.029.41-.41-.029-.029a.825.825,0,0,0-.965-.145l-.235-.235-.41.408.235.235a.824.824,0,0,0,.991,1.164l.6-.2a.247.247,0,0,1,.253.41l-.06.06a.248.248,0,0,1-.35,0L9.69,23.1l-.41.41.029.029a.816.816,0,0,0,.965.145l.235.235.41-.41-.235-.235A.825.825,0,0,0,10.538,22.314Z" transform="translate(-6.297 -15.828)"/><path class="f" d="M49.919,21.46l-.41-.41-.235.235a.824.824,0,0,0-1.164.991l.2.6a.247.247,0,0,1-.41.253l-.06-.06a.248.248,0,0,1,0-.35l.029-.029-.41-.41-.029.029a.825.825,0,0,0-.145.965l-.235.235.41.41.235-.235a.824.824,0,0,0,1.164-.991l-.2-.6a.247.247,0,0,1,.41-.253l.06.06a.248.248,0,0,1,0,.35l-.029.029.41.41.029-.029a.825.825,0,0,0,.145-.965Z" transform="translate(-34.324 -15.825)"/><path class="f" d="M31.159,7.332V7h-.579v.332a.824.824,0,0,0-.122,1.525l.565.282a.247.247,0,0,1-.11.469h-.085a.248.248,0,0,1-.247-.247V9.318H30V9.36a.825.825,0,0,0,.579.785v.332h.579v-.332a.824.824,0,0,0,.122-1.525l-.565-.282a.247.247,0,0,1,.11-.469h.085a.248.248,0,0,1,.247.247v.042h.579V8.117A.825.825,0,0,0,31.159,7.332Z" transform="translate(-22.057 -5.812)"/><rect class="g" width="0.579" height="3.477" transform="translate(8.239 6.361)"/><path class="g" d="M35.579,31.318H35V30.159A1.159,1.159,0,0,1,36.159,29v.579a.579.579,0,0,0-.579.579Z" transform="translate(-25.631 -21.484)"/><path class="g" d="M26.159,29.9h-.579V28.159A.579.579,0,0,0,25,27.579V27a1.159,1.159,0,0,1,1.159,1.159Z" transform="translate(-18.47 -20.062)"/><path class="b" d="M19.012,6.138Q19,5.984,19,5.826A4.023,4.023,0,0,1,20.248,2.9l.4.418a3.448,3.448,0,0,0-1.07,2.508q0,.135.01.267Z" transform="translate(-14.177 -2.9)"/><rect class="h" width="0.579" height="0.579" transform="translate(0.579 0.608)"/><rect class="b" width="0.579" height="0.579" transform="translate(2.607 2.057)"/><rect class="i" width="0.579" height="0.579" transform="translate(0.29 9.826)"/><rect class="i" width="0.579" height="0.579" transform="translate(16.478 9.826)"/><rect class="h" width="0.579" height="0.579" transform="translate(12.501 0.319)"/><rect class="b" width="0.579" height="0.579" transform="translate(15.32 2.347)"/><path class="e" d="M4.738,40,3,41.738H6.477L8.215,40Z" transform="translate(-2.71 -29.314)"/><rect class="e" width="17.058" height="0.582" transform="translate(0 17.418)"/></g></g></svg>