<svg xmlns="http://www.w3.org/2000/svg" xmlns:xlink="http://www.w3.org/1999/xlink" width="18" height="18" viewBox="0 0 18 18">
  <defs>
    <clipPath id="clip-path">
      <rect id="Rectangle_9321" data-name="Rectangle 9321" width="18" height="18" transform="translate(1343 1480)" fill="#fff"/>
    </clipPath>
    <linearGradient id="linear-gradient" x1="0.5" x2="0.5" y2="1.326" gradientUnits="objectBoundingBox">
      <stop offset="0" stop-color="#ffdc64"/>
      <stop offset="1" stop-color="#08ce73"/>
    </linearGradient>
    <linearGradient id="linear-gradient-2" x1="0.5" x2="0.5" y2="1.326" gradientUnits="objectBoundingBox">
      <stop offset="0" stop-color="#ffdc64"/>
      <stop offset="1" stop-color="#11f28a"/>
    </linearGradient>
  </defs>
  <g id="Payback_Points" data-name="Payback Points" transform="translate(-1343 -1480)" clip-path="url(#clip-path)">
    <g id="_002-bonus" data-name="002-bonus" transform="translate(1343.75 1480)">
      <g id="Group_28053" data-name="Group 28053" transform="translate(0 10.345)">
        <g id="Group_28052" data-name="Group 28052">
          <rect id="Rectangle_9319" data-name="Rectangle 9319" width="9.838" height="7.219" transform="translate(4.903 0)" fill="url(#linear-gradient)"/>
          <path id="Path_42147" data-name="Path 42147" d="M11.762,47.219H8V42.063L8.289,40h3.472Z" transform="translate(-6.553 -40)" fill="url(#linear-gradient-2)"/>
          <path id="Path_42148" data-name="Path 42148" d="M30.838,40l1.736,1.736H22.736L21,40Z" transform="translate(-16.097 -39.977)" fill="#08ce73"/>
          <path id="Path_42149" data-name="Path 42149" d="M4.736,40,3,41.736H6.472L8.209,40Z" transform="translate(-3 -39.977)" fill="#08ce73"/>
        </g>
        <rect id="Rectangle_9320" data-name="Rectangle 9320" width="16.5" height="0.75" transform="translate(0 6.905)" fill="#08b766"/>
      </g>
      <g id="Group_28054" data-name="Group 28054" transform="translate(0.75 0.118)">
        <path id="Path_42150" data-name="Path 42150" d="M47.526,15.906H46.277a.213.213,0,0,1-.2-.147l-.386-1.188a.826.826,0,0,0-1.572,0l-.386,1.188a.213.213,0,0,1-.2.147H42.277a.827.827,0,0,0-.486,1.5l1.011.735a.213.213,0,0,1,.078.238l-.386,1.188a.83.83,0,0,0,.786,1.085.829.829,0,0,0,.486-.16l1.011-.735a.213.213,0,0,1,.251,0l1.011.735a.826.826,0,0,0,1.272-.924l-.386-1.188A.212.212,0,0,1,47,18.136l1.011-.735a.827.827,0,0,0-.486-1.5Zm.125,1-1.011.735a.825.825,0,0,0-.3.924l.386,1.188a.214.214,0,0,1-.329.238l-1.011-.735a.826.826,0,0,0-.972,0l-1.011.735a.214.214,0,0,1-.329-.238l.386-1.188a.825.825,0,0,0-.3-.924l-1.011-.735a.213.213,0,0,1,.125-.386h1.249a.824.824,0,0,0,.786-.571L44.7,14.76a.21.21,0,0,1,.2-.148.207.207,0,0,1,.2.147l.386,1.188a.825.825,0,0,0,.786.571h1.249a.213.213,0,0,1,.125.386Z" transform="translate(-37.241 -14)" fill="#e71c37"/>
        <path id="Path_42151" data-name="Path 42151" d="M62,52.307v2.452a.307.307,0,0,0,.613,0V52.307a.307.307,0,0,0-.613,0Z" transform="translate(-54.643 -45.426)" fill="#2699fb"/>
        <path id="Path_42152" data-name="Path 42152" d="M71.226,62H70.92a.921.921,0,0,0-.92.92v.307a.307.307,0,0,0,.613,0V62.92a.307.307,0,0,1,.307-.307h.307a.307.307,0,0,0,0-.613Z" transform="translate(-61.417 -53.894)" fill="#2699fb"/>
        <path id="Path_42153" data-name="Path 42153" d="M49.226,63.533a.306.306,0,0,0,.307-.307V62.92a.921.921,0,0,0-.92-.92h-.307a.307.307,0,0,0,0,.613h.307a.307.307,0,0,1,.307.307v.307A.306.306,0,0,0,49.226,63.533Z" transform="translate(-42.788 -53.894)" fill="#2699fb"/>
        <path id="Path_42154" data-name="Path 42154" d="M86.007,43.306a.6.6,0,0,0,.509.509l.727.115.116.727a.6.6,0,0,0,.509.509.638.638,0,0,0,.1.008.6.6,0,0,0,.542-.335l.335-.656.727.116a.613.613,0,0,0,.53-1.039l-.521-.521.335-.656a.613.613,0,0,0-.824-.824l-.656.335-.521-.521a.613.613,0,0,0-1.039.53l.116.727-.656.335a.6.6,0,0,0-.329.641Zm1.261-.43a.612.612,0,0,0,.327-.642l-.116-.727.521.521a.612.612,0,0,0,.712.113l.658-.338,0,0-.335.657a.612.612,0,0,0,.113.712l.521.521-.727-.116a.615.615,0,0,0-.642.327l-.335.656-.116-.727a.61.61,0,0,0-.509-.509l-.727-.115Z" transform="translate(-74.964 -36.77)" fill="rgba(252,128,25,0.5)"/>
        <path id="Path_42155" data-name="Path 42155" d="M14.062,43.967a.6.6,0,0,0,.642.327l.727-.116.335.656a.6.6,0,0,0,.542.335.638.638,0,0,0,.1-.008.6.6,0,0,0,.509-.509l.116-.727.727-.116a.613.613,0,0,0,.183-1.152l-.656-.335L17.4,41.6a.613.613,0,0,0-1.039-.53l-.521.521-.656-.335a.613.613,0,0,0-.824.824l.335.656-.521.521a.6.6,0,0,0-.114.713Zm1.067-.8a.612.612,0,0,0,.113-.712l-.334-.656.656.335a.611.611,0,0,0,.712-.113L16.8,41.5l-.116.727a.612.612,0,0,0,.327.642l.656.335-.727.116a.612.612,0,0,0-.509.509l-.115.727-.335-.657a.612.612,0,0,0-.545-.335.659.659,0,0,0-.1.007l-.727.116Z" transform="translate(-13.994 -36.765)" fill="rgba(252,128,25,0.5)"/>
        <path id="Path_42156" data-name="Path 42156" d="M31,7.286V7h-.5v.286A.711.711,0,0,0,30.395,8.6l.487.244a.213.213,0,0,1-.1.4h-.073a.214.214,0,0,1-.213-.214V9H30v.036a.712.712,0,0,0,.5.677V10H31V9.714A.711.711,0,0,0,31.106,8.4l-.487-.243a.214.214,0,0,1,.1-.4h.073A.214.214,0,0,1,31,7.964V8h.5V7.964A.712.712,0,0,0,31,7.286Z" transform="translate(-23.086 -5.176)" fill="#e71c37"/>
      </g>
    </g>
  </g>
</svg>
