<svg xmlns="http://www.w3.org/2000/svg" xmlns:xlink="http://www.w3.org/1999/xlink" width="18" height="18" viewBox="0 0 18 18"><defs><style>.a{fill:none;}.b{fill:#08ce73;}.c{fill:#e71c37;}.d{fill:#fcc65f;}.e{fill:#f4f2f2;}.f{fill:#fff;}.g{fill:#2699fb;}.h{fill:#26b99a;}.i{fill:#424a60;}.j{fill:url(#a);}</style><linearGradient id="a" x1="0.5" x2="0.5" y2="1" gradientUnits="objectBoundingBox"><stop offset="0" stop-color="#faca5d"/><stop offset="1" stop-color="#ff6d21"/></linearGradient></defs><g transform="translate(0.316 -0.462)"><rect class="a" width="18" height="18" transform="translate(-0.316 0.462)"/><g transform="translate(0.684 0.462)"><path class="b" d="M1188.877,891.976h11l1.4,13.491h-13.808Z" transform="translate(-1187.476 -887.467)"/><path class="c" d="M1200.727,889.4h0a.385.385,0,0,1-.383-.389c.009-1.131.019-2.976.006-3.223a.243.243,0,0,1,0-.04,2.452,2.452,0,0,0-2.372-2.3,2.607,2.607,0,0,0-2.767,2.19c-.008.14,0,2.146,0,3.373a.386.386,0,0,1-.384.388h0a.386.386,0,0,1-.386-.384c-.017-3.4,0-3.466.009-3.52a3.392,3.392,0,0,1,3.565-2.818,3.217,3.217,0,0,1,3.1,3.023l-.02,0c.046.351.039,1.18.021,3.317A.386.386,0,0,1,1200.727,889.4Z" transform="translate(-1190.945 -882.666)"/><path class="d" d="M1199.876,900.458h7.648l.974,9.129h-9.6Z" transform="translate(-1193.278 -891.587)"/><g transform="translate(7.668 4.41)"><circle class="e" cx="3.247" cy="3.247" r="3.247" transform="translate(0.25 0.251)"/><circle class="f" cx="1.873" cy="1.873" r="1.873" transform="translate(1.624 1.624)"/><path class="g" d="M1206.374,898.453a3.5,3.5,0,1,1,3.5-3.5A3.5,3.5,0,0,1,1206.374,898.453Zm0-6.494a3,3,0,1,0,3,3A3,3,0,0,0,1206.374,891.959Z" transform="translate(-1202.877 -891.459)"/><g transform="translate(0.625 0.61)"><path class="h" d="M1209.559,892.645a.125.125,0,0,0-.125.125h0v.125a.125.125,0,0,0,.25,0v-.125a.125.125,0,0,0-.125-.125Z" transform="translate(-1206.687 -892.645)"/><path class="h" d="M1209.559,903.087a.125.125,0,0,0-.125.125h0v.125a.125.125,0,0,0,.25,0h0v-.125a.125.125,0,0,0-.125-.125Z" transform="translate(-1206.687 -897.717)"/><path class="h" d="M1214.784,897.987h-.125a.125.125,0,0,0,0,.25h.125a.125.125,0,1,0,0-.25Z" transform="translate(-1209.164 -895.24)"/><path class="h" d="M1204.342,897.987h-.125a.125.125,0,0,0,0,.25h.125a.125.125,0,0,0,0-.25Z" transform="translate(-1204.092 -895.24)"/><path class="h" d="M1213.161,894.241l-.088.088a.125.125,0,0,0,.166.188l.011-.011.089-.088a.125.125,0,0,0-.166-.187Z" transform="translate(-1208.434 -893.4)"/><path class="h" d="M1205.776,901.624l-.088.088a.125.125,0,0,0,.166.187l.011-.011.089-.089a.125.125,0,0,0-.166-.187Z" transform="translate(-1204.847 -896.986)"/><path class="h" d="M1213.259,901.635a.125.125,0,0,0-.176.176l.089.088a.125.125,0,1,0,.187-.165l-.011-.011Z" transform="translate(-1208.444 -896.997)"/><path class="h" d="M1205.875,894.251a.125.125,0,0,0-.176.176l.089.088a.125.125,0,1,0,.187-.166l-.011-.011Z" transform="translate(-1204.857 -893.41)"/></g><path class="i" d="M1211.287,898.267h-1a.125.125,0,1,1,0-.25h1a.125.125,0,1,1,0,.25Z" transform="translate(-1206.416 -894.645)"/><path class="i" d="M1209.56,896.24a.125.125,0,0,1-.125-.125h0v-1.374a.125.125,0,0,1,.25,0v1.374a.125.125,0,0,1-.125.125Z" transform="translate(-1206.063 -892.993)"/><path class="i" d="M1209.205,898.288a.5.5,0,1,1,.5-.5A.5.5,0,0,1,1209.205,898.288Zm0-.749a.25.25,0,1,0,.25.25.25.25,0,0,0-.25-.25Z" transform="translate(-1205.708 -894.291)"/></g><path class="j" d="M1201.922,900.458h7.648l.974,9.129h-9.6Z" transform="translate(-1194.272 -891.587)"/><path class="f" d="M1208.22,906.87q-.082,0-.165-.006a2.175,2.175,0,0,1-2.1-2.046h.016c-.033-.274-.028-.841-.018-2.11a.386.386,0,0,1,.386-.382h0a.385.385,0,0,1,.382.389c-.008.875-.011,1.862,0,2.024a.282.282,0,0,1,0,.03,1.412,1.412,0,0,0,1.367,1.325,1.5,1.5,0,0,0,1.607-1.268c0-.087,0-1.347,0-2.114a.386.386,0,0,1,.384-.388h0a.386.386,0,0,1,.386.384c.011,2.168,0,2.206-.008,2.259A2.256,2.256,0,0,1,1208.22,906.87Z" transform="translate(-1196.649 -892.421)"/></g></g></svg>