<svg xmlns="http://www.w3.org/2000/svg" xmlns:xlink="http://www.w3.org/1999/xlink" width="156.947" height="44" viewBox="0 0 156.947 44">
  <defs>
    <clipPath id="clip-path">
      <rect id="Rectangle_6091" data-name="Rectangle 6091" width="36.913" height="13.289" fill="none"/>
    </clipPath>
  </defs>
  <g id="Group_18706" data-name="Group 18706" transform="translate(-7523.747 -7103.974)">
    <rect id="Rectangle_6089" data-name="Rectangle 6089" width="156.947" height="44" rx="8" transform="translate(7523.747 7103.974)" fill="#303f9f"/>
    <g id="Group_18700" data-name="Group 18700" transform="translate(7533.259 7121.969)">
      <g id="Group_18697" data-name="Group 18697" transform="translate(93.422 0.82)">
        <path id="Path_28553" data-name="Path 28553" d="M7698.033,7135.831h2.158v14.911h7.145v1.812h-9.3Z" transform="translate(-7698.033 -7135.831)" fill="#fff"/>
        <path id="Path_28554" data-name="Path 28554" d="M7717.756,7150.024a3.847,3.847,0,0,0,4.118,4.168,7.9,7.9,0,0,0,3.325-.62l.372,1.563a9.728,9.728,0,0,1-4,.744c-3.7,0-5.9-2.432-5.9-6.054s2.134-6.476,5.632-6.476c3.921,0,4.962,3.449,4.962,5.656a8.075,8.075,0,0,1-.075,1.018Zm6.4-1.563c.024-1.39-.571-3.547-3.027-3.547-2.208,0-3.176,2.033-3.349,3.547Z" transform="translate(-7705.254 -7138.909)" fill="#fff"/>
        <path id="Path_28555" data-name="Path 28555" d="M7738.115,7146.873c0-1.24-.024-2.257-.1-3.249h1.935l.124,1.984h.05a4.417,4.417,0,0,1,3.97-2.258c1.662,0,4.242.992,4.242,5.11v7.171h-2.183v-6.923c0-1.935-.72-3.547-2.779-3.547a3.1,3.1,0,0,0-2.928,2.232,3.143,3.143,0,0,0-.149,1.018v7.22h-2.183Z" transform="translate(-7714.402 -7138.909)" fill="#fff"/>
        <path id="Path_28556" data-name="Path 28556" d="M7760.611,7153.4a5.72,5.72,0,0,0,2.878.868c1.587,0,2.332-.794,2.332-1.786,0-1.042-.619-1.613-2.232-2.208-2.159-.77-3.176-1.96-3.176-3.4,0-1.935,1.563-3.522,4.143-3.522a6,6,0,0,1,2.953.744l-.545,1.588a4.677,4.677,0,0,0-2.457-.694c-1.291,0-2.01.744-2.01,1.638,0,.992.719,1.438,2.283,2.034,2.084.794,3.15,1.836,3.15,3.622,0,2.108-1.638,3.6-4.491,3.6a6.853,6.853,0,0,1-3.374-.819Z" transform="translate(-7723.429 -7138.909)" fill="#fff"/>
      </g>
      <g id="Group_18699" data-name="Group 18699">
        <g id="Group_18698" data-name="Group 18698">
          <path id="Path_28557" data-name="Path 28557" d="M7553.816,7151.733h3.466l-.844-17.259h-4.685l-1.663,6.719c-.542,1.779-1.08,3.842-1.5,5.668h-.093c-.35-1.852-.819-3.817-1.337-5.622l-1.534-6.8h-4.755l-1.02,17.291h3.3l.306-6c.094-1.97.187-4.408.257-6.537h.048c.4,2.082.914,4.311,1.429,6.185l1.687,6.09h2.79l1.919-6.158c.611-1.853,1.266-4.1,1.779-6.116h.047c0,2.317.071,4.591.142,6.487Z" transform="translate(-7539.852 -7134.442)" fill="#fff" fill-rule="evenodd"/>
          <path id="Path_28558" data-name="Path 28558" d="M7674.338,7155.039a8.1,8.1,0,0,0,3.7.825c3.281,0,4.945-1.576,4.945-3.73-.025-1.664-.916-2.787-3.094-3.513-1.406-.491-1.852-.774-1.852-1.335s.492-.915,1.359-.915a6.089,6.089,0,0,1,2.48.632l.612-2.436a7.547,7.547,0,0,0-3.211-.681c-2.833,0-4.661,1.615-4.661,3.772-.023,1.336.889,2.648,3.279,3.423,1.312.443,1.662.726,1.662,1.335,0,.585-.442.933-1.521.933a6.934,6.934,0,0,1-3.069-.841Z" transform="translate(-7594.91 -7138.308)" fill="#fff" fill-rule="evenodd"/>
          <path id="Path_28559" data-name="Path 28559" d="M7663.09,7144.319h-3.562v6.82a1.973,1.973,0,0,1-1.922,2.014c-1.265,0-1.8-1.008-1.8-2.67v-6.164h-3.562v6.726c0,3.54,1.687,5,4.028,5a4.088,4.088,0,0,0,3.585-1.881h.071l.163,1.617h3.094c-.049-.96-.094-2.179-.094-3.678Z" transform="translate(-7585.864 -7138.486)" fill="#fff" fill-rule="evenodd"/>
          <rect id="Rectangle_6090" data-name="Rectangle 6090" width="3.559" height="16.63" transform="translate(60.007 0.66)" fill="#fff"/>
          <path id="Path_28560" data-name="Path 28560" d="M7618.683,7134.968a29.5,29.5,0,0,1,4.825-.325,7.5,7.5,0,0,1,4.85,1.287,4.517,4.517,0,0,1,1.662,3.632,4.951,4.951,0,0,1-1.428,3.747,7.484,7.484,0,0,1-5.154,1.663,5.954,5.954,0,0,1-1.218-.093v6.838h-3.536Zm3.536,7.622a5.538,5.538,0,0,0,1.2.1c1.9,0,3.068-.963,3.068-2.556,0-1.451-.982-2.322-2.788-2.322a6.336,6.336,0,0,0-1.477.12Z" transform="translate(-7572.125 -7134.525)" fill="#fff" fill-rule="evenodd"/>
          <path id="Path_28561" data-name="Path 28561" d="M7593.387,7147.107h0a4.164,4.164,0,0,1-.071.8,2.106,2.106,0,0,1-2.084,1.71c-1.477,0-2.437-1.216-2.437-3.139,0-1.8.819-3.255,2.459-3.255a2.119,2.119,0,0,1,2.086,1.733,3.138,3.138,0,0,1,.046.659v1.5Zm0-11.546h0v6.207h-.046a3.525,3.525,0,0,0-3.022-1.291c-2.742,0-5.154,2.249-5.131,6.093,0,3.559,2.179,5.885,4.9,5.885a4,4,0,0,0,3.582-1.926h.07l.14,1.663h3.163c-.047-.772-.092-2.109-.092-3.416v-13.215Zm-17.2,9.58h0a2.358,2.358,0,0,1,2.227-2.319,2.075,2.075,0,0,1,1.991,2.319Zm7.4,2.46a9.125,9.125,0,0,0,.118-1.428c0-2.836-1.406-5.716-5.107-5.716-3.96,0-5.787,3.21-5.787,6.113,0,3.608,2.226,5.859,6.113,5.859a10.842,10.842,0,0,0,4.148-.729l-.471-2.415a9.4,9.4,0,0,1-3.161.493c-1.663,0-3.117-.7-3.234-2.2Z" transform="translate(-7553.348 -7134.901)" fill="#fff" fill-rule="evenodd"/>
        </g>
      </g>
    </g>
    <g id="Group_18705" data-name="Group 18705" transform="translate(7632.323 7111.451)">
      <g id="Group_18703" data-name="Group 18703">
        <g id="Group_18702" data-name="Group 18702">
          <g id="Group_18701" data-name="Group 18701" clip-path="url(#clip-path)">
            <path id="Path_28562" data-name="Path 28562" d="M7733.572,7116.709c-2.7.194-5.5,1.249-8.551,1.044-2.278-.152-4.623-.882-6.745-1.044a35.69,35.69,0,0,0-4.752.1c-2.1.179-5.286.525-5.794,2-.594,1.728.825,2.313,1.139,3.04.455,1.056.406,2.146.761,3.039a10.491,10.491,0,0,0,1.33,2.472c2.048,2.664,7.9,2.927,10.545.761a10.148,10.148,0,0,0,2.279-3.418c.4-.91.851-3.611,2.091-3.611.949,0,1.079.847,1.33,1.709.7,2.4,1.866,4.626,3.515,5.7,2.584,1.685,7.161,1.561,9.216-.187a9.94,9.94,0,0,0,2.564-4.467,18.734,18.734,0,0,1,.381-2c.389-.885,1.326-1.05,1.237-2.471-.17-2.686-7.189-2.9-10.546-2.66Zm-12.827,10.261a7.4,7.4,0,0,1-7.789.381c-1.208-.847-3.417-5.145-2-7.792.5-.939,1.413-1.179,2.754-1.329,3.469-.39,8.735.13,9.5,2.566.724,2.307-1.332,5.223-2.471,6.174Zm20.331-4.467c-.158,1.852-1.156,4.265-2.469,4.94-2.881,1.481-6.817.758-8.553-1.521-.889-1.168-2.048-3.429-1.52-5.13.55-1.776,3.163-2.355,5.7-2.566,4.473-.363,7.236-.242,6.84,4.276Zm-3.749-2.687" transform="translate(-7707.586 -7116.634)" fill="#ffcf01"/>
          </g>
        </g>
      </g>
      <g id="Group_18704" data-name="Group 18704" transform="translate(29.214 2.1)">
        <path id="Path_28563" data-name="Path 28563" d="M7759.14,7120.351a.277.277,0,0,0-.367-.135.28.28,0,0,0-.136.369l1.777,3.81a.277.277,0,0,0,.366.135.281.281,0,0,0,.136-.369Z" transform="translate(-7757.689 -7120.19)" fill="#00bbd7"/>
        <path id="Path_28564" data-name="Path 28564" d="M7757.576,7121.908a.277.277,0,0,0-.366-.136.28.28,0,0,0-.135.369l1.223,2.891a.277.277,0,0,0,.366.136.281.281,0,0,0,.136-.369Z" transform="translate(-7757.049 -7120.828)" fill="#00bbd7"/>
        <path id="Path_28565" data-name="Path 28565" d="M7757.942,7122.02" transform="translate(-7757.415 -7120.939)" fill="#00bbd7"/>
      </g>
    </g>
  </g>
</svg>
